<?xml version="1.0" encoding="UTF-8" standalone="no"?>
<svg
   version="1.1"
   width="180"
   height="55"
   id="svg29"
   sodipodi:docname="deneyap.svg"
   inkscape:version="1.3.2 (091e20ef0f, 2023-11-25)"
   xmlns:inkscape="http://www.inkscape.org/namespaces/inkscape"
   xmlns:sodipodi="http://sodipodi.sourceforge.net/DTD/sodipodi-0.dtd"
   xmlns="http://www.w3.org/2000/svg"
   xmlns:svg="http://www.w3.org/2000/svg">
  <defs
     id="defs29" />
  <sodipodi:namedview
     id="namedview29"
     pagecolor="#505050"
     bordercolor="#eeeeee"
     borderopacity="1"
     inkscape:showpageshadow="0"
     inkscape:pageopacity="0"
     inkscape:pagecheckerboard="0"
     inkscape:deskcolor="#505050"
     inkscape:zoom="3.8906663"
     inkscape:cx="93.942778"
     inkscape:cy="96.770057"
     inkscape:window-width="1920"
     inkscape:window-height="1051"
     inkscape:window-x="1920"
     inkscape:window-y="0"
     inkscape:window-maximized="1"
     inkscape:current-layer="svg29" />
  <g
     id="g29"
     transform="translate(5.5532881,-64.430888)">
    <path
       d="m 1.4492438,66.423996 c 54.7783252,0 109.5566562,0 165.9949362,0 0,16.834549 0,33.669104 0,51.013784 -54.77833,0 -109.556659,0 -165.9949362,0 0,-16.83454 0,-33.669098 0,-51.013784 z m 1.3826849,1.309916 c 0,15.945993 0,31.89199 0,48.321188 53.8897763,0 107.7795413,0 163.3023313,0 0,-15.94599 0,-31.891988 0,-48.321188 -53.88977,0 -107.779533,0 -163.3023313,0 z"
       fill="#ad1f24"
       id="path1"
       style="stroke-width:0.0727729" />
    <path
       d="m 74.127178,75.162143 c 0.749693,0.641159 1.273254,1.478049 1.404852,2.468879 0.01023,0.213568 0.01042,0.426824 0.01023,0.64062 0,0.09547 0,0.09547 7.22e-4,0.19287 7.31e-4,0.212827 7.31e-4,0.425664 8.77e-4,0.638482 0,0.152799 7.22e-4,0.305598 9.14e-4,0.458387 9.14e-4,0.414863 0.0018,0.829707 0.0018,1.24457 0,0.259386 7.32e-4,0.518781 8.78e-4,0.778167 9.14e-4,0.812171 0.0018,1.624341 0.0018,2.436512 0,0.936413 0.0018,1.872807 0.0037,2.80922 0.0018,0.724527 0.0027,1.449063 0.0027,2.173598 0,0.432381 7.31e-4,0.864761 0.0018,1.29715 9.14e-4,0.407013 0.0018,0.814017 7.31e-4,1.221021 -5.5e-5,0.148915 0,0.297812 9.14e-4,0.446718 0.0064,1.396838 -0.166909,2.496147 -1.166356,3.548888 -0.787169,0.745188 -1.750393,1.061213 -2.817673,1.050092 -1.070488,-0.06232 -1.914395,-0.597598 -2.665313,-1.325259 -0.130255,-0.116886 -0.260647,-0.233608 -0.391149,-0.35022 -0.488488,-0.44341 -0.950202,-0.914353 -1.413204,-1.384053 C 66.793251,93.1924 66.476642,92.890439 66.13991,92.601546 65.835418,92.332026 65.555718,92.036279 65.27112,91.746115 64.988442,91.460046 64.698096,91.19016 64.393376,90.927703 64.166138,90.726582 63.955165,90.510255 63.742968,90.293498 63.438385,89.985369 63.13191,89.688151 62.800899,89.408286 62.557231,89.190552 62.330851,88.95561 62.101301,88.723182 61.848312,88.468255 61.58835,88.226012 61.313895,87.99404 61.19605,87.892113 61.087196,87.784338 60.977602,87.673675 c -2.92e-4,0.07174 -5.11e-4,0.143496 -8.04e-4,0.217415 -0.0027,0.679768 -0.0073,1.359499 -0.01261,2.039249 -0.0027,0.349379 -0.0055,0.698739 -0.0064,1.048118 -9.14e-4,0.337873 -0.0037,0.675701 -0.0073,1.013548 -9.13e-4,0.128199 -0.0018,0.256397 -0.0018,0.384587 -9.14e-4,1.304379 -0.255247,2.374839 -1.171665,3.348718 -0.796773,0.74962 -1.727127,1.019168 -2.800329,1.006457 -1.061295,-0.04002 -1.976562,-0.476043 -2.705676,-1.250071 -0.591375,-0.733902 -0.897228,-1.524187 -0.890402,-2.462839 -3.66e-4,-0.06598 -7.86e-4,-0.131945 -9.14e-4,-0.199924 -9.14e-4,-0.218986 -5.03e-4,-0.437918 0,-0.656895 -4.39e-4,-0.157861 -9.14e-4,-0.315714 -0.0018,-0.473575 -9.13e-4,-0.427318 -9.13e-4,-0.854627 -8.04e-4,-1.281944 2.2e-4,-0.357347 -2.19e-4,-0.714694 -6.58e-4,-1.072032 -9.13e-4,-0.843341 -9.04e-4,-1.686664 -7.3e-5,-2.530004 8.41e-4,-0.868672 -2.19e-4,-1.737326 -0.0018,-2.606007 -0.0018,-0.747088 -0.0018,-1.494186 -0.0018,-2.241275 2.19e-4,-0.445649 7.3e-5,-0.891279 -9.14e-4,-1.336919 -9.14e-4,-0.419212 -8.41e-4,-0.838397 5.12e-4,-1.257591 2.83e-4,-0.153375 3.6e-5,-0.306731 -7.31e-4,-0.460097 -0.0064,-1.307192 0.18618,-2.321892 1.09739,-3.322856 0.856664,-0.811495 1.844424,-1.0569 2.992504,-1.03219 1.073192,0.05346 1.914651,0.630504 2.632333,1.398602 0.132521,0.133005 0.267245,0.252989 0.40991,0.374673 0.463075,0.401584 0.886399,0.845351 1.316742,1.281268 0.391679,0.396303 0.783075,0.787251 1.207285,1.149231 0.237976,0.208989 0.457209,0.436611 0.678836,0.662634 0.316007,0.319405 0.632451,0.629627 0.976182,0.919324 0.261132,0.233754 0.503713,0.486423 0.750059,0.735566 0.250321,0.252066 0.506847,0.489832 0.777884,0.71961 0.244254,0.218676 0.471528,0.454129 0.701828,0.687325 0.289834,0.292065 0.59164,0.565633 0.905709,0.831526 0.02403,0.02403 0.04807,0.04807 0.07274,0.07274 7.31e-4,-0.06799 8.77e-4,-0.135875 9.14e-4,-0.205873 0.0046,-0.644394 0.0095,-1.288779 0.0159,-1.933156 0.0037,-0.331184 0.0064,-0.66235 0.0082,-0.993544 0.0018,-0.320402 0.0046,-0.640776 0.0082,-0.961168 9.14e-4,-0.121428 0.0018,-0.242864 0.0027,-0.364301 0.0055,-1.369186 0.197083,-2.497089 1.175065,-3.530768 1.392461,-1.313928 3.5142,-1.391812 5.025046,-0.229121 z"
       fill="#145a96"
       id="path2"
       style="stroke-width:0.0727729" />
    <path
       d="m 14.512629,74.418444 c 0.07612,-2.19e-4 0.152314,-5.11e-4 0.230774,-7.49e-4 0.251564,-6.49e-4 0.503137,-8.22e-4 0.754701,-9.05e-4 0.175891,-2.19e-4 0.351773,-5.11e-4 0.527664,-7.4e-4 0.369062,-4.29e-4 0.738124,-5.76e-4 1.107186,-5.02e-4 0.469929,9e-6 0.93984,-9.14e-4 1.409769,-0.0018 0.363679,-8.13e-4 0.727368,-9.14e-4 1.091057,-9.14e-4 0.173049,-7.3e-5 0.346098,-4.38e-4 0.519147,-9.14e-4 1.224274,-0.0037 2.415403,0.03034 3.610297,0.326899 0.06424,0.01572 0.128464,0.03143 0.194643,0.0477 0.574972,0.146448 1.111801,0.341502 1.651975,0.5891 0.07128,0.03253 0.07128,0.03253 0.144017,0.0657 2.698822,1.245117 4.746424,3.50837 5.777553,6.283167 0.984937,2.769971 0.846119,5.860317 -0.373604,8.535764 -1.281734,2.68231 -3.58683,4.765148 -6.390256,5.758455 -1.303026,0.440257 -2.61222,0.615719 -3.985866,0.619511 -0.0774,7.31e-4 -0.154791,9.14e-4 -0.23453,0.0018 -0.252953,0.0018 -0.505906,0.0018 -0.758859,0.0027 -0.130712,7.22e-4 -0.130712,7.22e-4 -0.264056,8.68e-4 -0.460672,0.0018 -0.921344,0.0027 -1.382025,0.0037 -0.473538,7.95e-4 -0.947049,0.0037 -1.420579,0.0064 -0.366421,0.0018 -0.732842,0.0027 -1.099272,0.0027 -0.174502,7.31e-4 -0.349013,9.14e-4 -0.523515,0.0027 -1.466151,0.01069 -2.617804,-0.118878 -3.726626,-1.165817 -1.002491,-1.035735 -1.09909,-2.193473 -1.090619,-3.561645 -3.65e-4,-0.154919 -8.95e-4,-0.309838 -0.0018,-0.464766 -9.13e-4,-0.417686 -4.29e-4,-0.835345 9.14e-4,-1.253031 9.14e-4,-0.43875 5.76e-4,-0.877499 1.47e-4,-1.316249 -3.66e-4,-0.736388 8.22e-4,-1.472767 0.0027,-2.209146 0.0027,-0.849545 0.0027,-1.699063 9.14e-4,-2.548609 -9.14e-4,-0.819828 -6.49e-4,-1.639638 5.85e-4,-2.459467 5.11e-4,-0.34777 4.38e-4,-0.695531 -7.4e-5,-1.043292 -5.75e-4,-0.409901 3.66e-4,-0.819765 0.0027,-1.229665 5.12e-4,-0.149811 5.12e-4,-0.299622 -9e-6,-0.449432 -0.0046,-1.327471 0.189086,-2.424861 1.124083,-3.439999 0.894843,-0.829853 1.912631,-1.098734 3.100608,-1.098185 z m 3.310511,7.578947 c 0,2.329458 0,4.658917 0,7.058967 0.595871,0.0046 1.19175,0.0091 1.805678,0.01362 0.186473,0.0018 0.372946,0.0037 0.565076,0.0064 0.150203,7.31e-4 0.300407,9.14e-4 0.45062,0.0018 0.07603,9.14e-4 0.152077,0.0018 0.230427,0.0037 1.062711,0 1.973756,-0.345194 2.746441,-1.07906 0.696326,-0.752507 1.016527,-1.620357 1.004053,-2.63565 -0.03993,-0.962767 -0.475137,-1.845502 -1.175183,-2.504225 -0.835646,-0.676926 -1.690675,-0.901286 -2.74889,-0.886053 -0.07356,0 -0.147161,7.22e-4 -0.22298,7.22e-4 -0.271065,9.14e-4 -0.54212,0.0046 -0.813176,0.0073 -0.607878,0.0046 -1.215765,0.0091 -1.842066,0.01362 z"
       fill="#b32025"
       id="path3"
       style="stroke-width:0.0727729" />
    <path
       d="m 37.411432,74.464117 c 0.13147,-3.57e-4 0.262931,-9.14e-4 0.394402,-0.0018 0.354697,-9.14e-4 0.709357,-8.13e-4 1.064054,1.46e-4 0.37248,7.5e-4 0.74496,5.5e-5 1.117449,-4.29e-4 0.625241,-5.12e-4 1.250472,1.46e-4 1.875713,0.0018 0.721356,0.0018 1.442684,9.13e-4 2.164031,-5.12e-4 0.621083,-9.14e-4 1.242166,-0.0018 1.863248,-7.5e-4 0.370187,4.39e-4 0.740364,5.12e-4 1.11055,-4.29e-4 0.348081,-8.5e-4 0.696116,-2.19e-4 1.044188,0.0018 0.12723,3.56e-4 0.254451,2.83e-4 0.381672,-3.66e-4 0.853256,-0.0037 1.571505,0.08151 2.312489,0.543482 0.05529,0.03372 0.110508,0.06735 0.167429,0.102046 0.885039,0.615618 1.397469,1.47082 1.598444,2.524594 0.132065,0.92934 -0.03436,1.897955 -0.551477,2.690324 -0.657682,0.849618 -1.465667,1.490038 -2.547056,1.673778 -0.133865,0.0082 -0.267949,0.0127 -0.402042,0.0149 -0.117974,0.0018 -0.117974,0.0018 -0.238332,0.0046 -0.08407,9.14e-4 -0.16816,0.0027 -0.25479,0.0037 -0.08672,0.0018 -0.173414,0.0027 -0.262749,0.0046 -0.276565,0.0046 -0.553122,0.0091 -0.829697,0.01334 -0.187661,0.0027 -0.375331,0.0064 -0.562992,0.0095 -0.459703,0.0082 -0.919416,0.01517 -1.379128,0.0223 0.0891,0.04313 0.0891,0.04313 0.179994,0.08718 0.07822,0.03838 0.156436,0.07676 0.237025,0.116329 0.0774,0.03774 0.154818,0.07557 0.234576,0.114491 0.810772,0.433815 1.3385,1.216762 1.604365,2.083478 0.272116,0.964266 0.166333,1.949276 -0.291095,2.838143 -0.402325,0.65705 -0.833225,1.10471 -1.508616,1.467686 -0.07183,0.03875 -0.143752,0.07749 -0.217799,0.117452 -0.08197,0.04386 -0.08197,0.04386 -0.165683,0.08864 0.06525,7.22e-4 0.06525,7.22e-4 0.131772,9.14e-4 0.45698,0.0046 0.913914,0.01087 1.370858,0.01782 0.170015,0.0027 0.34003,0.0046 0.510055,0.0064 1.476997,0.0148 2.782865,0.0488 3.913756,1.125509 0.804385,0.861836 1.101841,1.813126 1.079662,2.977434 -0.04807,1.056781 -0.547128,1.923323 -1.301673,2.639443 -0.74474,0.625287 -1.565062,0.881547 -2.528643,0.883768 -0.05236,0 -0.104714,7.31e-4 -0.158656,7.31e-4 -0.174612,7.31e-4 -0.349223,7.31e-4 -0.523835,8.77e-4 -0.125558,0 -0.251107,7.22e-4 -0.376656,9.14e-4 -0.340578,9.14e-4 -0.681157,0.0018 -1.021745,0.0018 -0.213065,0 -0.426139,7.31e-4 -0.639204,8.77e-4 -0.667468,9.14e-4 -1.334936,0.0018 -2.002404,0.0018 -0.768938,0 -1.537867,0.0018 -2.306805,0.0037 -0.595368,0.0018 -1.190727,0.0027 -1.786096,0.0027 -0.355108,7.3e-5 -0.710207,7.22e-4 -1.065306,0.0018 -0.334383,9.14e-4 -0.668756,0.0018 -1.003139,7.22e-4 -0.12215,-4.6e-5 -0.24429,0 -0.36644,9.14e-4 -1.312292,0.0073 -2.353482,-0.234503 -3.329801,-1.161239 -0.709047,-0.747756 -1.050795,-1.602446 -1.050567,-2.625909 -2.92e-4,-0.06433 -5.12e-4,-0.128729 -8.13e-4,-0.195053 -7.95e-4,-0.216127 -9.14e-4,-0.432253 -9.14e-4,-0.648379 -4.3e-4,-0.154809 -9.14e-4,-0.309618 -0.0018,-0.464419 -0.0018,-0.508921 -0.0018,-1.017842 -0.0027,-1.526755 -2.93e-4,-0.175333 -5.76e-4,-0.350667 -8.96e-4,-0.526 -0.0018,-0.824023 -0.0027,-1.648046 -0.0027,-2.472069 -7.31e-4,-0.950247 -0.0027,-1.900486 -0.0055,-2.850734 -0.0018,-0.734981 -0.0037,-1.469943 -0.0037,-2.204924 -1.46e-4,-0.438695 -8.23e-4,-0.87738 -0.0027,-1.316075 -0.0018,-0.413172 -0.0018,-0.826317 -9.13e-4,-1.239479 3.6e-5,-0.151109 -4.39e-4,-0.302208 -0.0018,-0.453316 -0.0082,-1.368601 0.193235,-2.461331 1.16281,-3.493411 0.930647,-0.874201 1.961274,-1.016052 3.178858,-1.009865 z"
       fill="#f7981e"
       id="path4"
       style="stroke-width:0.0727729" />
    <path
       d="m 80.020466,74.482813 c 0.08096,-4.38e-4 0.08096,-4.38e-4 0.16349,-8.4e-4 0.179602,-7.5e-4 0.359166,-4.39e-4 0.538767,-1.46e-4 0.129259,-2.93e-4 0.258527,-7.32e-4 0.387786,-9.14e-4 0.350347,-9.14e-4 0.700686,-9.14e-4 1.051033,-8.32e-4 0.29295,7.3e-5 0.585901,-2.83e-4 0.87886,-6.49e-4 0.691511,-8.13e-4 1.38304,-8.4e-4 2.074551,-3.65e-4 0.712126,4.38e-4 1.424243,-4.39e-4 2.13636,-0.0018 0.612429,-9.14e-4 1.224849,-0.0018 1.837269,-0.0018 0.365316,1.46e-4 0.730613,-5.5e-5 1.095928,-9.14e-4 0.343823,-9.14e-4 0.687627,-7.77e-4 1.03145,1.46e-4 0.125695,1.46e-4 0.251399,-2.7e-5 0.377091,-6.58e-4 1.247484,-0.0055 2.268689,0.203351 3.200204,1.086598 0.865684,0.913714 1.079937,1.852237 1.062309,3.068396 -0.035,0.983657 -0.535193,1.84543 -1.246232,2.511527 -0.814181,0.673545 -1.741913,0.900262 -2.782144,0.901414 -0.128829,0.0018 -0.128829,0.0018 -0.260263,0.0037 -0.270568,0.0037 -0.541112,0.0055 -0.81171,0.0064 -0.185011,0.0018 -0.370022,0.0046 -0.555033,0.0064 -0.450236,0.0055 -0.900454,0.0091 -1.350709,0.01161 0.05995,0.02933 0.119856,0.05876 0.181594,0.08891 0.07868,0.03884 0.157258,0.07767 0.238277,0.117717 0.07795,0.03838 0.155869,0.07676 0.236166,0.116247 0.748852,0.392035 1.279632,1.151954 1.563536,1.937587 0.306064,1.069803 0.201094,2.141707 -0.327484,3.124687 -0.452429,0.708462 -1.073393,1.160809 -1.819322,1.528227 0.06525,7.31e-4 0.06525,7.31e-4 0.131772,9.13e-4 0.456981,0.0046 0.913924,0.01087 1.370859,0.01782 0.170015,0.0027 0.34003,0.0046 0.510054,0.0064 1.477004,0.0148 2.782862,0.0488 3.913753,1.125517 0.780799,0.841531 1.118819,1.803175 1.083071,2.953265 -0.107584,1.210922 -0.652537,2.089618 -1.569732,2.868563 -0.666664,0.495598 -1.447372,0.676926 -2.263993,0.678817 -0.05236,0 -0.104714,7.32e-4 -0.158656,7.32e-4 -0.174612,7.31e-4 -0.349223,7.31e-4 -0.523831,8.68e-4 -0.125558,0 -0.251098,7.31e-4 -0.376656,9.13e-4 -0.340579,9.14e-4 -0.681157,0.0018 -1.021736,0.0018 -0.213074,0 -0.426139,7.31e-4 -0.639213,8.77e-4 -0.667468,9.14e-4 -1.334936,0.0018 -2.002413,0.0018 -0.768929,0 -1.537858,0.0018 -2.306796,0.0037 -0.595359,0.0018 -1.190728,0.0027 -1.786096,0.0027 -0.355108,7.3e-5 -0.710198,7.22e-4 -1.065306,0.0018 -0.334383,9.14e-4 -0.668757,0.0018 -1.00314,7.22e-4 -0.122149,-4.5e-5 -0.244299,0 -0.366439,9.14e-4 -1.312712,0.0073 -2.352624,-0.23496 -3.329802,-1.160955 -0.725248,-0.766087 -1.050795,-1.595538 -1.050566,-2.637706 0,-0.0647 -7.31e-4,-0.129451 -8.04e-4,-0.196142 -8.05e-4,-0.216912 -9.14e-4,-0.433815 -0.0018,-0.650717 -7.31e-4,-0.155532 -9.14e-4,-0.311072 -0.0018,-0.466612 -0.0018,-0.510877 -0.0018,-1.021763 -0.0027,-1.532649 0,-0.176083 -7.31e-4,-0.352157 -8.77e-4,-0.528231 -0.0018,-0.82744 -0.0027,-1.654881 -0.0027,-2.482321 -7.31e-4,-0.954049 -0.0027,-1.908071 -0.0055,-2.862102 -0.0018,-0.73807 -0.0037,-1.47613 -0.0037,-2.2142 0,-0.440485 -7.95e-4,-0.880962 -0.0027,-1.321448 -0.0018,-0.414771 -0.0018,-0.829533 -9.14e-4,-1.244322 3.6e-5,-0.151684 -7.22e-4,-0.303378 -0.0018,-0.455071 -0.0082,-1.322956 0.161069,-2.380175 1.090884,-3.392316 0.66618,-0.639962 1.560813,-1.029283 2.487174,-1.024138 z"
       fill="#c62b26"
       id="path5"
       style="stroke-width:0.0727729" />
    <path
       d="m 141.4137,74.464117 c 0.10912,-3.57e-4 0.21826,-9.14e-4 0.3274,-0.0018 0.29398,-9.14e-4 0.58794,-8.13e-4 0.88192,1.46e-4 0.3097,7.5e-4 0.61939,5.5e-5 0.92908,-4.29e-4 0.52033,-5.12e-4 1.04065,1.46e-4 1.56097,0.0018 0.59824,0.0018 1.19645,9.13e-4 1.7947,-5.12e-4 0.51651,-9.14e-4 1.03303,-0.0018 1.54955,-7.5e-4 0.3072,4.39e-4 0.61439,5.12e-4 0.92159,-4.29e-4 2.47147,-0.0064 4.57501,0.333332 6.49438,2.004534 0.0691,0.05465 0.0691,0.05465 0.13957,0.110297 1.45692,1.160188 2.37616,3.200479 2.59794,5.018494 0.23791,2.466512 -0.46862,4.602224 -2.03422,6.50293 -1.38085,1.595346 -3.38642,2.508959 -5.47261,2.689894 -0.54458,0.03162 -1.09024,0.02339 -1.63554,0.02175 -0.13265,0 -0.2653,0 -0.39794,0 -0.34658,0 -0.69316,-9.14e-4 -1.03975,-0.0018 -0.35467,-7.31e-4 -0.70935,-9.14e-4 -1.06402,-0.0018 -0.69405,-8.04e-4 -1.3881,-0.0018 -2.08214,-0.0037 9.2e-4,0.06744 0.002,0.134833 0.004,0.204293 0.004,0.255264 0.006,0.510502 0.008,0.765776 9.1e-4,0.10953 0.003,0.219041 0.005,0.328553 0.023,1.351293 -0.18611,2.467142 -1.1507,3.483359 -0.83419,0.790988 -1.75995,1.068011 -2.89358,1.054925 -1.04208,-0.05903 -1.94689,-0.520956 -2.65592,-1.280638 -0.65674,-0.794753 -0.89595,-1.63347 -0.89487,-2.649832 0,-0.06369 -7.3e-4,-0.127294 -7.3e-4,-0.19287 -7.3e-4,-0.212836 -7.3e-4,-0.425654 -8.6e-4,-0.638491 0,-0.15279 -7.4e-4,-0.305588 -9.2e-4,-0.458387 -9.1e-4,-0.414845 -0.002,-0.829707 -0.002,-1.24456 0,-0.259396 -7.3e-4,-0.518782 -8.7e-4,-0.778177 -9.2e-4,-0.812171 -0.002,-1.624332 -0.002,-2.436512 0,-0.936413 -0.002,-1.872807 -0.004,-2.809211 -0.002,-0.724536 -0.003,-1.449062 -0.003,-2.173598 0,-0.432381 -7.2e-4,-0.864761 -0.002,-1.29715 -9.1e-4,-0.407013 -0.002,-0.814017 -7.2e-4,-1.22103 5e-5,-0.148906 0,-0.297812 -9.1e-4,-0.446709 -0.006,-1.387526 0.16274,-2.49664 1.15669,-3.54378 0.8633,-0.797961 1.82074,-1.01183 2.96781,-1.004766 z m 4.05306,7.169411 c -0.14962,0.299274 -0.0958,0.680773 -0.10006,1.009719 -0.003,0.08023 -0.005,0.16042 -0.008,0.243047 -8.7e-4,0.07722 -0.002,0.154416 -0.003,0.233964 -0.002,0.07073 -0.003,0.14144 -0.005,0.214299 0.0599,0.269849 0.17757,0.333368 0.40632,0.482155 0.22643,0.04322 0.22643,0.04322 0.47413,0.03655 0.0945,7.22e-4 0.18897,0.0018 0.28632,0.0018 0.10261,-7.32e-4 0.20523,-0.0018 0.30783,-0.0027 0.10595,9e-6 0.21189,0 0.31784,0 0.22182,7.3e-5 0.4436,-8.04e-4 0.66541,-0.0027 0.28329,-0.0018 0.56651,-0.0018 0.8498,-9.14e-4 0.21876,7.31e-4 0.43752,-5.5e-5 0.65629,-9.14e-4 0.10438,0 0.20877,-7.31e-4 0.31315,-6.4e-5 0.89486,0.0073 0.89486,0.0073 1.64632,-0.427692 0.25893,-0.303304 0.33973,-0.496668 0.32749,-0.907665 -0.056,-0.374618 -0.24094,-0.603784 -0.53216,-0.83433 -0.33639,-0.182215 -0.59704,-0.200336 -0.97874,-0.201597 -0.14279,-7.31e-4 -0.14279,-7.31e-4 -0.28848,-0.0018 -0.10368,0 -0.20736,0 -0.31104,0 -0.10657,0 -0.21315,-7.31e-4 -0.31972,-7.31e-4 -0.22315,-7.31e-4 -0.44631,-7.31e-4 -0.66947,-7.31e-4 -0.28581,9e-6 -0.57162,-9.14e-4 -0.85744,-0.0018 -0.22001,-7.95e-4 -0.44001,-9.14e-4 -0.66001,-9.14e-4 -0.10538,0 -0.21076,-7.31e-4 -0.31614,-9.14e-4 -0.14735,-7.22e-4 -0.29471,-7.22e-4 -0.44205,-6.4e-5 -0.0838,0 -0.1676,0 -0.25394,0 -0.21117,0.01764 -0.33164,0.0466 -0.50648,0.163546 z"
       fill="#b32025"
       id="path6"
       style="stroke-width:0.0727729" />
    <path
       d="m 125.18559,74.415082 c 0.89441,-0.04121 1.80786,0.201596 2.52459,0.74166 0.085,0.06406 0.085,0.06406 0.1717,0.129341 0.5909,0.484806 0.92055,1.097373 1.25477,1.773833 0.0515,0.103763 0.10314,0.207509 0.15473,0.311245 0.0269,0.05428 0.0539,0.10857 0.0817,0.164495 0.11337,0.227823 0.22756,0.455244 0.34179,0.682638 0.12136,0.241612 0.24251,0.483344 0.36366,0.725066 0.061,0.12182 0.12223,0.243604 0.18343,0.365361 0.30741,0.61178 0.61275,1.2242 0.90561,1.843108 0.41973,0.886866 0.85627,1.764877 1.2956,2.642148 0.0341,0.06808 0.0682,0.136167 0.10333,0.206321 0.24885,0.496831 0.49801,0.993526 0.7472,1.490193 0.28371,0.565413 0.56729,1.130872 0.85054,1.696514 0.0338,0.06753 0.0676,0.135016 0.10243,0.204567 0.46807,0.935288 0.93055,1.872661 1.37536,2.81929 0.12176,0.258554 0.24537,0.516223 0.36882,0.773982 0.47796,1.000316 0.55091,2.034489 0.21377,3.09285 -0.38686,1.009801 -1.10353,1.77884 -2.07857,2.237766 -0.82049,0.365745 -1.73902,0.459685 -2.60618,0.195575 -0.94497,-0.369208 -1.65979,-1.043439 -2.34977,-1.767308 -1.09315,-1.173364 -1.09315,-1.173364 -2.49873,-1.903173 -0.0986,-0.0318 -0.0986,-0.0318 -0.19927,-0.06424 -0.17879,-0.04505 -0.34468,-0.0679 -0.52845,-0.08133 -0.0705,-0.0055 -0.14091,-0.0116 -0.21349,-0.01764 -1.22459,-0.05099 -2.47209,0.377926 -3.37967,1.204727 -0.36929,0.350457 -0.68324,0.73774 -0.99154,1.141628 -0.65112,0.813166 -1.45034,1.407922 -2.49929,1.580542 -1.16752,0.123612 -2.17612,-0.12554 -3.11786,-0.830072 -0.67448,-0.565587 -1.17178,-1.39862 -1.29627,-2.278706 -0.0175,-0.239593 -0.0235,-0.478464 -0.0273,-0.718632 -0.003,-0.06214 -0.005,-0.124197 -0.008,-0.188182 -0.0128,-0.969538 0.45204,-1.872268 0.88436,-2.715901 0.0466,-0.0923 0.0931,-0.184618 0.13953,-0.276987 0.12132,-0.240854 0.24349,-0.481278 0.36588,-0.721593 0.19437,-0.382047 0.38732,-0.764817 0.58048,-1.147476 0.0658,-0.130137 0.13195,-0.260108 0.19811,-0.390062 0.27278,-0.537981 0.5359,-1.079936 0.79506,-1.624606 0.41375,-0.869074 0.84198,-1.730508 1.27332,-2.590956 0.0791,-0.157971 0.1581,-0.315942 0.23713,-0.473931 0.20553,-0.410787 0.41123,-0.821492 0.61698,-1.232178 0.20857,-0.416379 0.41696,-0.832841 0.62538,-1.249294 0.23505,-0.469664 0.47013,-0.939327 0.70531,-1.408937 0.0356,-0.07109 0.0712,-0.142198 0.10789,-0.21545 0.0689,-0.137556 0.13781,-0.275094 0.20675,-0.412623 0.15329,-0.30589 0.30628,-0.611918 0.45828,-0.918447 0.0266,-0.05346 0.0531,-0.106889 0.0804,-0.161947 0.0482,-0.09726 0.0965,-0.194569 0.14445,-0.291963 0.55221,-1.111235 1.28938,-1.800461 2.47549,-2.200254 0.28845,-0.08544 0.56235,-0.116256 0.86076,-0.141002 z"
       fill="#135c9a"
       id="path7"
       style="stroke-width:0.0727729" />
    <path
       d="m 102.8429,75.26704 c 0.35578,0.326049 0.6588,0.693795 0.96271,1.067709 0.13789,0.168635 0.27909,0.334301 0.42053,0.499957 0.27423,0.32137 0.54426,0.645857 0.81074,0.973696 0.28785,0.353747 0.58381,0.699827 0.8816,1.045166 0.22577,0.262411 0.44703,0.527774 0.66483,0.796901 0.31031,0.381819 0.63483,0.748542 0.96879,1.109782 0.0377,0.04167 0.0754,0.08334 0.11428,0.126216 0.10112,0.110964 0.10112,0.110964 0.24958,0.237646 0.23067,0.02449 0.23067,0.02449 0.3923,-0.15862 0.0627,-0.06771 0.12533,-0.135454 0.18989,-0.205242 0.0567,-0.06022 0.11332,-0.12045 0.17169,-0.182498 0.35794,-0.391871 0.70193,-0.790979 1.03532,-1.203877 0.20032,-0.244729 0.40577,-0.484559 0.61231,-0.724033 0.25869,-0.300152 0.51436,-0.601985 0.76411,-0.909666 0.28311,-0.348519 0.57315,-0.690441 0.86699,-1.029923 0.18404,-0.212901 0.36556,-0.427026 0.54185,-0.646414 0.68677,-0.850322 1.46331,-1.452316 2.58187,-1.581739 0.73632,-0.053 1.40808,-0.0037 2.08583,0.31077 0.0578,0.02641 0.11576,0.05273 0.17539,0.07987 0.95946,0.485482 1.53799,1.282109 1.88215,2.284672 0.27806,0.959752 0.17855,1.987071 -0.27773,2.875381 -0.23921,0.393589 -0.51957,0.73626 -0.83148,1.073969 -0.20472,0.225575 -0.39167,0.463751 -0.58077,0.702421 -0.47057,0.593367 -0.95766,1.171903 -1.45204,1.745413 -0.14738,0.170974 -0.29386,0.342644 -0.43949,0.515099 -0.46541,0.549906 -0.94746,1.080713 -1.44152,1.604977 -0.19616,0.208405 -0.38783,0.420272 -0.57765,0.634498 -0.2305,0.258792 -0.47119,0.503237 -0.71863,0.745919 -0.80437,0.773781 -0.80437,0.773781 -1.14173,1.801877 -7e-5,0.08562 0,0.171203 0,0.259395 0,0.04761 -7.3e-4,0.09528 -8e-4,0.144356 -7.2e-4,0.102794 -7.2e-4,0.205599 -7.2e-4,0.308394 7e-5,0.163527 -8.8e-4,0.327017 -0.002,0.490535 -0.004,0.46472 -0.005,0.929431 -0.005,1.394151 0,0.285046 -0.002,0.570056 -0.005,0.855093 -7.3e-4,0.107739 -8.8e-4,0.215486 -7.3e-4,0.323234 0.004,1.152594 -0.2838,2.102376 -1.08137,2.960137 -0.81737,0.762632 -1.81849,1.06017 -2.91347,1.047523 -1.03809,-0.05885 -1.94798,-0.519284 -2.65593,-1.275511 -0.58727,-0.729827 -0.89219,-1.576073 -0.89496,-2.508922 0,-0.04743 -7.3e-4,-0.09479 -8.1e-4,-0.143615 -7.2e-4,-0.10221 -9.1e-4,-0.204411 -9.1e-4,-0.306612 -7.3e-4,-0.162221 -0.002,-0.324423 -0.003,-0.486634 -0.004,-0.460973 -0.007,-0.921929 -0.008,-1.38292 -7.2e-4,-0.282689 -0.003,-0.565332 -0.005,-0.848011 -8.7e-4,-0.107172 -9.1e-4,-0.214344 -9.1e-4,-0.321507 7.9e-4,-0.666509 -0.0253,-1.156204 -0.45162,-1.697227 -0.0568,-0.05392 -0.0568,-0.05392 -0.11489,-0.108872 -0.0424,-0.04112 -0.0848,-0.08215 -0.12849,-0.124489 -0.0441,-0.04149 -0.0884,-0.08297 -0.1339,-0.125668 -0.0923,-0.08937 -0.18451,-0.178961 -0.27659,-0.268634 -0.0651,-0.06305 -0.0651,-0.06305 -0.13151,-0.127385 -0.171,-0.168681 -0.32602,-0.348401 -0.48108,-0.531548 -0.21157,-0.242215 -0.43259,-0.475375 -0.65269,-0.709823 -0.34681,-0.370195 -0.68947,-0.742081 -1.01882,-1.127976 -0.0653,-0.07603 -0.13074,-0.152013 -0.19615,-0.227987 -0.65882,-0.766142 -1.316519,-1.533408 -1.953776,-2.317652 -0.137539,-0.169019 -0.275744,-0.33738 -0.41447,-0.505422 -1.065315,-1.293979 -1.637518,-2.295766 -1.510882,-4.007916 0.174685,-0.928353 0.717216,-1.748885 1.45545,-2.328727 1.46754,-0.908185 3.274378,-0.985028 4.678528,0.110297 z"
       fill="#fbb01a"
       id="path8"
       style="stroke-width:0.0727729" />
    <path
       d="m 33.105448,79.377568 c 0.04807,0 0.09606,0 0.145543,0 0.02038,0.04057 0.04076,0.08106 0.06168,0.122807 0.517127,0.984379 1.249842,1.531297 2.294331,1.905741 1.388367,0.430873 2.81421,0.544049 4.261499,0.529437 0.191106,-0.0018 0.382203,-0.0027 0.573318,-0.0037 0.40482,-0.0018 0.809621,-0.0046 1.214432,-0.0073 0.472076,-0.0037 0.944162,-0.0064 1.416256,-0.0082 0.186546,-9.14e-4 0.373074,-0.0027 0.559611,-0.0046 1.186889,-0.0073 2.263426,0.104604 3.16855,0.960793 0.766014,0.835509 1.112541,1.807799 1.07311,2.936222 -0.08864,0.993554 -0.520225,1.847458 -1.241681,2.537954 -0.688705,0.546808 -1.44103,0.792679 -2.305316,0.793785 -0.06388,7.22e-4 -0.127687,7.22e-4 -0.193463,9.14e-4 -0.138498,8.04e-4 -0.276996,0.0018 -0.415493,0.0018 -0.220513,8.78e-4 -0.441016,0.0018 -0.66152,0.0037 -0.626967,0.0046 -1.253926,0.0082 -1.880894,0.01087 -0.384049,0.0018 -0.768088,0.0046 -1.152119,0.0073 -0.145104,9.13e-4 -0.2902,0.0018 -0.435304,0.0018 -1.935861,0.0037 -4.059958,0.213239 -5.52514,1.616574 -0.392273,0.41075 -0.637778,0.787059 -0.811869,1.328667 -0.04807,0 -0.09606,0 -0.145543,0 0,-4.202631 0,-8.405262 0,-12.735252 z"
       fill="#fbb01a"
       id="path9"
       style="stroke-width:0.0727729" />
    <path
       d="m 76.478084,79.377568 c 0.04807,0 0.09606,0 0.145543,0 0.02038,0.0466 0.04076,0.09325 0.06168,0.141284 0.423489,0.913723 1.129785,1.42004 2.053268,1.800845 1.452233,0.520609 2.987011,0.63108 4.518262,0.615856 0.193848,-0.0018 0.387668,-0.0027 0.581515,-0.0037 0.410504,-0.0018 0.82098,-0.0046 1.231465,-0.0073 0.478885,-0.0037 0.95776,-0.0064 1.436644,-0.0082 0.189415,-9.14e-4 0.378813,-0.0027 0.568219,-0.0046 1.107131,-0.0073 2.180041,0.09019 3.032392,0.890301 0.726125,0.820194 1.155234,1.721252 1.143894,2.833875 -0.06671,0.983017 -0.392291,1.84182 -1.091597,2.547047 -0.732075,0.625021 -1.419829,0.956992 -2.379819,0.95638 -0.09594,0 -0.09594,0 -0.19382,7.21e-4 -0.139055,7.31e-4 -0.27811,9.14e-4 -0.417165,9.14e-4 -0.221828,7.22e-4 -0.443648,0.0018 -0.665467,0.0027 -0.630833,0.0037 -1.261666,0.0073 -1.892509,0.0082 -3.04556,-0.03884 -3.04556,-0.03884 -5.949332,0.776779 -0.06296,0.02833 -0.125887,0.05666 -0.190741,0.08581 -0.752187,0.378045 -1.461965,1.047962 -1.765032,1.842633 -0.02705,0.08407 -0.05401,0.168105 -0.08188,0.254698 -0.04807,0 -0.09606,0 -0.145544,0 0,-4.202631 0,-8.405262 0,-12.735252 z"
       fill="#d93628"
       id="path10"
       style="stroke-width:0.0727729" />
    <path
       d="m 74.127178,75.162143 c 0.746586,0.6385 1.279385,1.479867 1.404852,2.468879 0.01224,0.287979 0.01371,0.575858 0.01517,0.864066 7.32e-4,0.08672 0.0018,0.173351 0.0018,0.262649 0.0018,0.286398 0.0037,0.572787 0.0055,0.859186 0,0.04889 7.22e-4,0.0978 7.22e-4,0.148184 0.0018,0.46207 0.0046,0.92414 0.0055,1.38621 0.0018,0.588616 0.0046,1.177194 0.0097,1.765791 0.0037,0.41521 0.0055,0.83041 0.0055,1.245638 0,0.247333 0.0018,0.494621 0.0046,0.741944 0.0027,0.276575 0.0027,0.553013 0.0027,0.829597 0.0018,0.120834 0.0018,0.120834 0.0046,0.244098 -0.0064,0.655004 -0.19669,1.227627 -0.64551,1.71756 -0.426065,0.397445 -0.802401,0.522336 -1.381312,0.509881 -0.789937,-0.08499 -1.369451,-0.580117 -1.901483,-1.130251 -0.133462,-0.133764 -0.272472,-0.256791 -0.415886,-0.379782 -0.204365,-0.176018 -0.3975,-0.358151 -0.586723,-0.550344 C 70.470551,85.956253 70.28077,85.777017 70.07921,85.604197 69.801894,85.365956 69.547004,85.109622 69.290369,84.849459 69.142285,84.703478 68.990656,84.566195 68.832977,84.430731 68.767,84.371973 68.767,84.371973 68.699688,84.311972 68.55049,84.179551 68.55049,84.179551 68.393369,84.074307 68.11228,83.853091 67.980955,83.684483 67.911834,83.328333 c -0.02623,-0.341437 -0.01892,-0.682436 -0.01215,-1.024504 7.31e-4,-0.127249 8.77e-4,-0.254506 9.13e-4,-0.381755 8.05e-4,-0.266377 0.0037,-0.532644 0.0073,-0.798993 0.0055,-0.338614 0.0073,-0.677137 0.0082,-1.015787 7.31e-4,-0.262868 0.0027,-0.525717 0.0046,-0.788576 9.14e-4,-0.124681 0.0018,-0.249362 0.0027,-0.374042 0.0092,-1.376543 0.19573,-2.513748 1.179378,-3.553412 1.392442,-1.313928 3.514182,-1.391813 5.025027,-0.229121 z"
       fill="#18a6d2"
       id="path11"
       style="stroke-width:0.0727729" />
    <path
       d="m 56.683855,83.45285 c 0.232584,0.211475 0.45083,0.436675 0.668601,0.6632 0.16116,0.167457 0.327538,0.323363 0.504864,0.473877 0.294102,0.250166 0.561411,0.52399 0.832622,0.798518 0.15035,0.148413 0.303002,0.287989 0.463651,0.424979 0.243915,0.208432 0.470696,0.431238 0.695887,0.659499 0.315586,0.319104 0.640694,0.619091 0.982433,0.909666 0.144282,0.144273 0.08499,0.429712 0.08562,0.627169 5.12e-4,0.05812 9.14e-4,0.116228 0.0018,0.176101 0.0018,0.193509 0.0018,0.387028 0.0027,0.580546 2.93e-4,0.06616 5.85e-4,0.132384 8.96e-4,0.200591 0.0018,0.351207 0.0027,0.702404 0.0037,1.05361 7.95e-4,0.360902 0.0037,0.721776 0.0064,1.082669 0.0018,0.278832 0.0027,0.557664 0.0027,0.836505 3.57e-4,0.132878 9.14e-4,0.265746 0.0027,0.398606 0.0127,1.324857 -0.224579,2.392411 -1.160407,3.386924 -0.796782,0.74962 -1.727127,1.019168 -2.800338,1.006457 -1.061295,-0.04002 -1.976553,-0.476043 -2.705676,-1.250071 -0.658092,-0.816712 -0.895793,-1.632574 -0.89159,-2.664983 -5.12e-4,-0.08672 -9.14e-4,-0.173442 -0.0018,-0.262786 -9.13e-4,-0.235773 -9.13e-4,-0.471528 -8.13e-4,-0.70731 2.19e-4,-0.197814 -2.19e-4,-0.395636 -6.58e-4,-0.59345 -9.14e-4,-0.467224 -9.04e-4,-0.934448 -6.4e-5,-1.401672 8.32e-4,-0.47977 -2.19e-4,-0.959514 -0.0018,-1.439294 -0.0018,-0.413976 -0.0018,-0.827952 -0.0018,-1.241937 2.19e-4,-0.246346 7.3e-5,-0.492665 -9.14e-4,-0.739011 -9.14e-4,-0.275122 -2.92e-4,-0.550189 9.14e-4,-0.82532 -7.31e-4,-0.08005 -0.0018,-0.160182 -0.0018,-0.242709 0.0064,-0.709833 0.160192,-1.42481 0.620818,-1.98315 0.823566,-0.741204 1.857912,-0.579203 2.692599,0.07274 z"
       fill="#18a4d0"
       id="path12"
       style="stroke-width:0.0727729" />
    <path
       d="m 102.8429,75.26704 c 0.35578,0.326049 0.6588,0.693795 0.96271,1.067709 0.13789,0.168635 0.27909,0.334301 0.42053,0.499957 0.27423,0.32137 0.54426,0.645857 0.81074,0.973696 0.28785,0.353747 0.58381,0.699827 0.8816,1.045166 0.22577,0.262411 0.44703,0.527774 0.66483,0.796901 0.37319,0.459192 0.76018,0.908605 1.18256,1.32355 0.15009,0.150094 0.15009,0.150094 0.29564,0.368414 -1.54545,1.435062 -3.54843,2.106232 -5.63198,2.047236 -1.62417,-0.08206 -3.352625,-0.976639 -4.444505,-2.170601 -0.165126,-0.197275 -0.322147,-0.397893 -0.475585,-0.60436 -0.04204,-0.05638 -0.08407,-0.112765 -0.127349,-0.170847 -0.652153,-0.924424 -0.754719,-1.8555 -0.673152,-2.958391 0.174693,-0.928353 0.717216,-1.748885 1.455459,-2.328728 1.467512,-0.908185 3.274352,-0.985027 4.678502,0.110298 z"
       fill="#f68c21"
       id="path13"
       style="stroke-width:0.0727729" />
    <path
       d="m 125.2359,91.093999 c 0.0441,0.03253 0.0883,0.06497 0.13376,0.0985 0.50053,0.370214 0.97333,0.763191 1.42944,1.187255 0.2149,0.198901 0.43603,0.389568 0.65923,0.579057 0.10631,0.100062 0.10631,0.100062 0.17908,0.245606 -0.34912,-0.113231 -0.69183,-0.240407 -1.03473,-0.370972 -1.09424,-0.355008 -2.26038,-0.09083 -3.27706,0.375522 -0.81687,0.435415 -1.39039,1.086014 -1.94668,1.814771 -0.65112,0.813167 -1.45034,1.407923 -2.49929,1.580542 -1.16752,0.123612 -2.17612,-0.125539 -3.11786,-0.830072 -0.67448,-0.565587 -1.17179,-1.39862 -1.29627,-2.278705 -0.0686,-0.9393 -0.0203,-1.753061 0.36387,-2.619823 0.0323,-0.07512 0.0647,-0.150277 0.0981,-0.227695 0.21792,-0.378648 0.57666,-0.604433 0.92075,-0.863893 0.051,-0.04085 0.10206,-0.0816 0.15464,-0.123657 2.7929,-2.078315 6.8053,-0.366449 9.23305,1.433564 z"
       fill="#199ecb"
       id="path14"
       style="stroke-width:0.0727729" />
    <path
       d="m 125.18559,74.415082 c 0.89441,-0.04121 1.80786,0.201596 2.52459,0.74166 0.085,0.06406 0.085,0.06406 0.1717,0.129341 0.43375,0.355876 0.72385,0.763785 0.99267,1.253342 0.0466,0.07649 0.0466,0.07649 0.0942,0.15459 0.28817,0.507542 0.32301,0.937957 0.31058,1.514638 8e-4,0.08023 0.002,0.160512 0.003,0.243193 -0.009,1.027256 -0.39263,1.6989 -1.08036,2.426661 -1.01794,0.989003 -2.18457,1.133962 -3.54399,1.118317 -0.0978,-7.31e-4 -0.19556,-9.14e-4 -0.29334,-0.0018 -0.41164,-0.0027 -0.82325,-0.0055 -1.23487,-0.01005 -0.2532,-0.0027 -0.50638,-0.0046 -0.75959,-0.0055 -0.14083,-8.69e-4 -0.28164,-0.0027 -0.42245,-0.0046 -0.82489,-0.0027 -1.62581,0.103728 -2.36025,0.495882 -0.12299,0.06415 -0.12299,0.06415 -0.24846,0.129624 -0.18062,0.104842 -0.34378,0.213175 -0.50656,0.343402 0.10025,-0.324239 0.22778,-0.618816 0.37996,-0.921992 0.0348,-0.06972 0.0348,-0.06972 0.0704,-0.140783 0.0765,-0.152826 0.15333,-0.305451 0.23022,-0.458067 0.0539,-0.10752 0.10777,-0.215048 0.16162,-0.322604 0.14188,-0.283218 0.28411,-0.566263 0.42642,-0.849262 0.14276,-0.284032 0.28519,-0.568228 0.42766,-0.852415 0.16127,-0.321672 0.32258,-0.643316 0.48412,-0.964869 0.0247,-0.04916 0.0493,-0.09831 0.0748,-0.148952 0.0487,-0.09697 0.0975,-0.19392 0.14622,-0.290867 0.12632,-0.251299 0.25204,-0.502881 0.37697,-0.754865 0.0261,-0.05245 0.0522,-0.104988 0.0791,-0.159068 0.0495,-0.09978 0.0989,-0.199623 0.14821,-0.299548 0.55751,-1.121862 1.28786,-1.819779 2.48733,-2.224069 0.28844,-0.08544 0.56234,-0.116255 0.86076,-0.141001 z"
       fill="#1c98c5"
       id="path15"
       style="stroke-width:0.0727729" />
    <path
       d="m 68.020523,101.27048 c 0.08654,-7.3e-4 0.173022,-0.002 0.262155,-0.002 0.09369,0 0.187378,-7.3e-4 0.283913,-9.2e-4 0.09748,-7.3e-4 0.194935,-8.7e-4 0.292412,-9.1e-4 0.20463,-8e-4 0.409261,-9.1e-4 0.613891,-0.002 0.260419,-7.3e-4 0.520801,-0.002 0.781211,-0.005 0.201605,-0.002 0.403202,-0.002 0.604807,-0.002 0.142126,0 0.284242,-0.002 0.426359,-0.003 0.952331,0.003 1.634018,0.22389 2.341027,0.86804 0.654702,0.72953 0.924122,1.43204 0.904822,2.41601 -0.07045,0.92728 -0.565532,1.67347 -1.255041,2.2733 -0.07201,0.0481 -0.14409,0.0961 -0.218319,0.14554 0.08553,0.0923 0.08553,0.0923 0.172829,0.18648 0.270754,0.32921 0.35604,0.65915 0.332025,1.0825 -0.06068,0.40862 -0.232355,0.73837 -0.543801,1.01257 -0.335078,0.22022 -0.728374,0.29684 -1.125426,0.2655 -0.44903,-0.13702 -0.715882,-0.30009 -1.037006,-0.63761 -0.03957,-0.0401 -0.07914,-0.0801 -0.119874,-0.12144 -0.124672,-0.12668 -0.248009,-0.25458 -0.371347,-0.38257 -0.08489,-0.0867 -0.169905,-0.17339 -0.25499,-0.25997 -0.207089,-0.21107 -0.41298,-0.42323 -0.618287,-0.63605 -0.0037,0.0701 -0.0073,0.14024 -0.01161,0.21247 -0.0055,0.0919 -0.01133,0.18379 -0.01709,0.27846 -0.0055,0.0911 -0.01069,0.18226 -0.01617,0.27616 -0.04724,0.42603 -0.212745,0.67766 -0.528221,0.96582 -0.410111,0.28707 -0.724673,0.33555 -1.212696,0.27034 -0.420345,-0.0901 -0.662652,-0.26093 -0.897722,-0.62056 -0.221115,-0.37487 -0.238478,-0.71088 -0.239145,-1.14042 -3.56e-4,-0.0559 -7.22e-4,-0.11178 -9.14e-4,-0.16936 -9.13e-4,-0.18464 -0.0018,-0.36926 -0.0018,-0.55388 -4.39e-4,-0.12872 -8.41e-4,-0.25744 -9.14e-4,-0.38616 -7.59e-4,-0.2699 -9.14e-4,-0.53979 -0.0018,-0.80971 -3.65e-4,-0.34485 -0.0018,-0.68968 -0.0046,-1.03453 -9.14e-4,-0.26597 -0.0018,-0.53193 -0.0018,-0.79789 -2.2e-4,-0.12708 -7.95e-4,-0.25416 -0.0018,-0.38123 -9.14e-4,-0.17833 -9.14e-4,-0.3566 -6.58e-4,-0.53493 -6.58e-4,-0.0519 -9.14e-4,-0.10378 -0.0018,-0.15724 0.0037,-0.44141 0.09623,-0.84446 0.387284,-1.18657 0.07429,-0.0599 0.07429,-0.0599 0.150094,-0.12083 0.04953,-0.0412 0.09907,-0.0823 0.150094,-0.12479 0.256206,-0.1782 0.477029,-0.18059 0.78005,-0.18257 z m 1.616912,2.70433 c -0.0073,0.10896 -0.0094,0.21828 -0.0091,0.32747 0,0.0593 -7.31e-4,0.11858 -7.31e-4,0.17967 -0.0064,0.14747 -0.0064,0.14747 0.08243,0.22058 0.311821,0.0205 0.624537,0.0169 0.936952,0.0182 0.132129,0.002 0.132129,0.002 0.266925,0.005 0.08434,7.2e-4 0.168672,7.2e-4 0.255558,9.1e-4 0.07767,7.3e-4 0.15533,0.002 0.235343,0.002 0.197631,-0.01 0.197631,-0.01 0.328964,-0.12295 0.101105,-0.12894 0.101105,-0.12894 0.159442,-0.33963 -0.107373,-0.20271 -0.107373,-0.20271 -0.291095,-0.36387 -0.208825,-0.051 -0.208825,-0.051 -0.439755,-0.0381 -0.08407,8.7e-4 -0.168196,0.002 -0.254853,0.003 -0.08745,0.003 -0.17495,0.005 -0.26508,0.008 -0.08836,9.2e-4 -0.17664,0.002 -0.267638,0.003 -0.395681,-0.0304 -0.395681,-0.0304 -0.737539,0.0969 z"
       fill="#b32026"
       id="path16"
       style="stroke-width:0.0727729" />
    <path
       d="m 129.87381,101.26932 c 0.0495,-7.2e-4 0.099,-9.1e-4 0.14998,-0.002 0.16375,-0.002 0.32751,-0.002 0.49128,-0.003 0.0841,-7.3e-4 0.0841,-7.3e-4 0.16993,-8.7e-4 0.29699,-0.002 0.59399,-0.003 0.89097,-0.004 0.30579,-8e-4 0.61155,-0.004 0.91733,-0.006 0.23594,-0.002 0.47186,-0.003 0.70781,-0.003 0.11266,0 0.22531,-9.1e-4 0.33796,-0.003 1.09855,-0.0124 1.09855,-0.0124 1.59394,0.3241 0.39898,0.41998 0.46667,0.74903 0.45427,1.31674 -0.0386,0.46367 -0.26347,0.69948 -0.59896,0.99039 -0.35878,0.2313 -0.73917,0.26601 -1.15612,0.2854 -0.0501,0.003 -0.10018,0.005 -0.15179,0.008 -0.12221,0.006 -0.24446,0.0129 -0.36672,0.0187 0.0298,0.0317 0.0597,0.0634 0.0904,0.0961 0.29023,0.32077 0.48861,0.57282 0.49377,1.02365 -0.0335,0.57564 -0.25193,0.8827 -0.65694,1.28177 0.0878,0.002 0.17561,0.004 0.26606,0.005 0.11751,0.004 0.23501,0.008 0.35251,0.0125 0.0576,9.1e-4 0.11519,0.002 0.17454,0.003 0.50895,0.0208 0.91542,0.14932 1.27182,0.52447 0.2934,0.4514 0.30839,0.81112 0.2638,1.34631 -0.12205,0.38767 -0.3839,0.66188 -0.72773,0.87326 -0.33936,0.11223 -0.63545,0.16407 -0.99222,0.16554 -0.0928,7.3e-4 -0.18558,0.002 -0.28118,0.002 -0.10001,-2e-5 -0.20001,-7e-5 -0.30003,0 -0.10393,0 -0.20786,7.3e-4 -0.31179,9.1e-4 -0.21721,7.2e-4 -0.4344,7.2e-4 -0.65161,0 -0.27707,-7.3e-4 -0.5541,8e-4 -0.83116,0.003 -0.21446,9.2e-4 -0.42892,9.2e-4 -0.64338,9.2e-4 -0.10209,3e-5 -0.20418,7.3e-4 -0.30627,9.1e-4 -0.65216,0.005 -1.13998,-0.0224 -1.70431,-0.36866 -0.38252,-0.39314 -0.4985,-0.81884 -0.49135,-1.3551 -7.2e-4,-0.0574 -8e-4,-0.11471 -9.1e-4,-0.1738 -8.8e-4,-0.1878 0,-0.37551 0.002,-0.56331 -1e-5,-0.13156 0,-0.26313 0,-0.39469 0,-0.27502 8.1e-4,-0.55002 0.003,-0.82503 0.002,-0.35139 0.002,-0.70273 9.2e-4,-1.05411 -7.3e-4,-0.27146 5e-5,-0.5429 9.1e-4,-0.81436 0,-0.12952 0,-0.25903 8e-5,-0.38855 0,-0.18143 9.1e-4,-0.36282 0.003,-0.54425 0,-0.0528 -7.3e-4,-0.10558 -9.2e-4,-0.15997 0.006,-0.44125 0.0965,-0.84792 0.38972,-1.19258 0.0743,-0.0598 0.0743,-0.0598 0.15009,-0.12082 0.0495,-0.0412 0.0991,-0.0823 0.1501,-0.12479 0.27548,-0.1916 0.52306,-0.1811 0.84917,-0.18371 z"
       fill="#af2025"
       id="path17"
       style="stroke-width:0.0727729" />
    <path
       d="m 85.60653,101.40502 c 0.368468,0.21399 0.563138,0.49555 0.695887,0.89601 0.02102,0.19125 0.03664,0.37689 0.04551,0.56854 0.0046,0.0757 0.0046,0.0757 0.0082,0.15279 0.0064,0.1234 0.01288,0.24683 0.01873,0.37027 0.05501,-0.0562 0.11006,-0.11236 0.166762,-0.17023 0.205316,-0.20929 0.411372,-0.41783 0.617638,-0.62617 0.08901,-0.0901 0.177782,-0.18036 0.266367,-0.27085 0.127743,-0.1304 0.256188,-0.26008 0.384798,-0.38964 0.03911,-0.0403 0.07822,-0.0805 0.118577,-0.122 0.353162,-0.35331 0.688714,-0.56246 1.202132,-0.56792 0.505695,0.0151 0.800309,0.15929 1.144186,0.52334 0.265747,0.35459 0.286317,0.685 0.281711,1.11917 -0.07374,0.46059 -0.33028,0.75889 -0.655817,1.07453 -0.03847,0.0381 -0.07694,0.0763 -0.116539,0.11561 -0.12182,0.12061 -0.24439,0.24044 -0.366997,0.36026 -0.08316,0.0821 -0.16635,0.16426 -0.249444,0.24646 -0.20283,0.20043 -0.406318,0.40016 -0.61019,0.59952 0.113989,0.27743 0.288181,0.44737 0.502306,0.6544 0.07146,0.07 0.142993,0.14003 0.214481,0.21007 0.112235,0.10908 0.224652,0.21797 0.337261,0.32666 0.109174,0.10563 0.217653,0.21195 0.326077,0.31835 0.06497,0.063 0.130008,0.12587 0.196981,0.1907 0.378804,0.42905 0.427565,0.79709 0.413063,1.35174 -0.04615,0.40689 -0.240196,0.58662 -0.525617,0.85963 -0.409599,0.29491 -0.727689,0.3404 -1.218937,0.2746 -0.903369,-0.19909 -1.797491,-1.4362 -2.428799,-2.07573 -0.0027,0.10933 -0.0027,0.10933 -0.0055,0.22088 -0.03929,1.04689 -0.03929,1.04689 -0.4591,1.48559 -0.285531,0.26155 -0.553269,0.39767 -0.94121,0.40877 -0.453024,-0.0228 -0.80094,-0.13512 -1.141062,-0.44146 -0.343219,-0.43574 -0.374737,-0.89024 -0.375587,-1.42526 0,-0.0544 -7.22e-4,-0.10873 -9.14e-4,-0.16474 -9.13e-4,-0.17915 -0.0018,-0.35832 -0.0018,-0.53748 -7.31e-4,-0.12516 -8.77e-4,-0.25034 -9.14e-4,-0.37552 -7.95e-4,-0.26231 -9.14e-4,-0.52461 -0.0018,-0.78692 -7.31e-4,-0.33481 -0.0018,-0.66961 -0.0046,-1.00442 -0.0018,-0.25859 -0.0018,-0.51718 -0.0018,-0.77579 0,-0.12336 -8.04e-4,-0.24672 -0.0018,-0.37008 -0.01051,-1.4528 -0.01051,-1.4528 0.384624,-1.93715 0.07429,-0.0586 0.07429,-0.0586 0.150094,-0.11825 0.04953,-0.0406 0.09907,-0.0811 0.150094,-0.1228 0.417961,-0.28313 1.037079,-0.25325 1.482746,-0.0455 z"
       fill="#b82026"
       id="path18"
       style="stroke-width:0.0727729" />
    <path
       d="m 51.612497,101.35953 c 0.406199,0.29285 0.648168,0.60016 0.777765,1.08704 0.01974,0.24627 0.01846,0.49159 0.01736,0.73853 9.13e-4,0.14517 0.0027,0.29034 0.0037,0.4355 9.14e-4,0.22724 0.0018,0.45444 9.14e-4,0.68168 -2.2e-4,0.22045 0.0018,0.44078 0.0046,0.66121 -7.5e-4,0.0673 -0.0018,0.13452 -0.0018,0.20382 0.0073,0.45998 0.105445,0.78577 0.41245,1.13623 0.306877,0.23563 0.567616,0.31382 0.955146,0.29109 0.326579,-0.0516 0.544505,-0.1346 0.7914,-0.36386 0.295162,-0.43021 0.332299,-0.82731 0.327767,-1.33749 6.48e-4,-0.0706 9.13e-4,-0.14131 0.0018,-0.2141 0.0018,-0.2242 0.0027,-0.44834 0.0018,-0.67254 2.83e-4,-0.22445 9.14e-4,-0.44886 0.0027,-0.6733 9.14e-4,-0.13916 0.0018,-0.27831 5.12e-4,-0.41747 0.0037,-0.50583 0.08087,-0.85432 0.414972,-1.2516 0.405779,-0.33973 0.720872,-0.41988 1.242541,-0.40224 0.452722,0.0481 0.687627,0.27724 0.969072,0.60861 0.275451,0.40655 0.262247,0.7941 0.261808,1.26955 2.92e-4,0.0747 6.58e-4,0.14955 9.14e-4,0.22659 4.29e-4,0.1583 4.29e-4,0.31661 1.46e-4,0.47491 -2.19e-4,0.2394 0.0018,0.47874 0.0037,0.71814 0.0046,1.49258 -0.191398,2.70637 -1.277649,3.80807 -0.267802,0.25139 -0.539141,0.44944 -0.859068,0.62823 -0.04341,0.0273 -0.08681,0.0546 -0.131607,0.0827 -0.906696,0.52452 -2.045171,0.51468 -3.0323,0.28342 -0.755021,-0.22097 -1.309012,-0.61133 -1.857428,-1.16664 -0.04103,-0.0394 -0.08197,-0.0788 -0.124224,-0.11939 -0.767613,-0.80204 -0.989533,-1.84999 -0.991817,-2.91916 -5.03e-4,-0.08 -9.14e-4,-0.16014 -0.0018,-0.24264 -7.31e-4,-0.16836 -9.14e-4,-0.33674 -9.14e-4,-0.50511 -2.92e-4,-0.25665 -0.0027,-0.51319 -0.0055,-0.76982 -4.38e-4,-0.16426 -7.31e-4,-0.32851 -8.5e-4,-0.49278 -9.13e-4,-0.0761 -0.0018,-0.15224 -0.0027,-0.23067 0.0037,-0.52415 0.07594,-0.94207 0.459996,-1.3311 0.04194,-0.0263 0.08389,-0.0527 0.127066,-0.0799 0.06314,-0.0415 0.06314,-0.0415 0.127641,-0.0839 0.416361,-0.22509 0.941978,-0.20296 1.3824,-0.0617 z"
       fill="#bd2127"
       id="path19"
       style="stroke-width:0.0727729" />
    <path
       d="m 35.111087,101.26221 c 0.104431,-7.2e-4 0.104431,-7.2e-4 0.210973,-9.1e-4 0.229833,-9.1e-4 0.459639,-9.1e-4 0.689472,-8e-4 0.159954,0 0.319918,-7.3e-4 0.479881,-9.2e-4 0.335168,-7.3e-4 0.670337,-7.3e-4 1.005506,0 0.42931,7.2e-4 0.858592,-8e-4 1.287893,-0.003 0.330317,-9.1e-4 0.660633,-9.1e-4 0.990949,-8.8e-4 0.158273,-2e-5 0.316546,-7.2e-4 0.474818,-9.1e-4 0.221399,-8.7e-4 0.442752,-7.3e-4 0.664151,7.3e-4 0.06525,-7.3e-4 0.130447,-9.1e-4 0.197649,-0.002 0.471738,0.004 0.770912,0.10208 1.139709,0.41084 0.293782,0.34937 0.426925,0.69448 0.407643,1.14759 -0.05821,0.39898 -0.253016,0.73205 -0.53045,1.01741 -0.428104,0.26057 -0.836552,0.30063 -1.32981,0.29818 -0.08398,0 -0.167914,-7.2e-4 -0.254415,-7.2e-4 -0.08663,-7.3e-4 -0.173177,-9.1e-4 -0.262384,-0.002 -0.08827,0 -0.176549,-7.3e-4 -0.2675,-9.1e-4 -0.217086,-8.7e-4 -0.434172,-0.002 -0.651258,-0.004 0.0018,0.064 0.0046,0.12797 0.0064,0.1939 0.02495,0.73579 0.04706,1.47163 0.06607,2.20761 0.0037,0.13239 0.0037,0.13239 0.0073,0.26746 0.0055,0.22621 0.0082,0.45234 0.01124,0.67858 0.0027,0.0974 0.0027,0.0974 0.0046,0.19674 0.0027,0.51117 -0.106176,0.94292 -0.354907,1.39062 -0.314078,0.28188 -0.675994,0.43617 -1.09898,0.46223 -0.450977,-0.0286 -0.755761,-0.15289 -1.075112,-0.4844 -0.284835,-0.3253 -0.341172,-0.54952 -0.340286,-0.97197 9e-6,-0.0874 9e-6,-0.1748 1.9e-5,-0.26485 3.65e-4,-0.0944 7.49e-4,-0.18877 9.13e-4,-0.286 1.47e-4,-0.0976 2.2e-4,-0.19518 2.93e-4,-0.29275 2.92e-4,-0.25663 9.14e-4,-0.51325 0.0018,-0.76986 7.41e-4,-0.26196 9.14e-4,-0.5239 0.0018,-0.78586 7.86e-4,-0.51382 0.0018,-1.02763 0.0037,-1.54145 -0.05867,9.2e-4 -0.117352,0.002 -0.17781,0.004 -0.268204,0.005 -0.536399,0.007 -0.804622,0.0101 -0.09231,0.002 -0.184618,0.004 -0.279719,0.005 -0.609313,0.005 -1.024723,-0.0483 -1.557797,-0.35122 -0.287267,-0.3112 -0.44065,-0.67479 -0.466767,-1.09897 0.03125,-0.49205 0.187889,-0.79704 0.553186,-1.13425 0.412843,-0.28193 0.760139,-0.29422 1.246068,-0.29287 z"
       fill="#a71f23"
       id="path20"
       style="stroke-width:0.0727729" />
    <path
       d="m 113.16585,101.32797 c 0.53809,0.28826 0.92098,0.87248 1.29967,1.33692 0.11157,0.13671 0.22328,0.27326 0.33578,0.40921 0.0691,0.0835 0.13751,0.16756 0.20527,0.25215 0.0817,0.099 0.17013,0.19245 0.25945,0.2847 0.2131,0.0237 0.2131,0.0237 0.31956,-0.0876 0.0344,-0.0407 0.0686,-0.0812 0.104,-0.12313 0.0387,-0.0452 0.0773,-0.0904 0.11712,-0.13694 0.0407,-0.0489 0.0814,-0.0978 0.12338,-0.14819 0.042,-0.0494 0.0841,-0.0988 0.12735,-0.14976 0.30082,-0.35508 0.59467,-0.71562 0.88237,-1.08142 0.29222,-0.3316 0.59138,-0.5696 1.03758,-0.62055 0.44088,-0.0202 0.78978,0.0378 1.1456,0.30986 0.29551,0.32343 0.44618,0.62644 0.45939,1.06885 0.004,0.0882 0.004,0.0882 0.008,0.17823 -0.077,0.51811 -0.39412,0.90785 -0.73598,1.28632 -0.0783,0.0888 -0.15662,0.17769 -0.2348,0.26664 -0.0575,0.0651 -0.0575,0.0651 -0.11606,0.13141 -0.15224,0.17538 -0.29617,0.35701 -0.44054,0.5389 -0.29284,0.36363 -0.61583,0.6802 -0.95714,0.9975 -0.40581,0.4627 -0.32169,0.99748 -0.29975,1.57499 0.0113,0.5386 -0.0725,0.98384 -0.3623,1.44366 -0.33454,0.32498 -0.68546,0.41833 -1.13992,0.44972 -0.35635,-0.007 -0.62754,-0.0975 -0.89374,-0.33771 -0.33778,-0.37369 -0.47133,-0.69964 -0.47417,-1.20786 -0.002,-0.0855 -0.003,-0.17102 -0.005,-0.25911 -0.002,-0.1789 -0.004,-0.35781 -0.004,-0.53671 -0.012,-0.60941 -0.0904,-0.89828 -0.51595,-1.3453 -0.065,-0.062 -0.13001,-0.12401 -0.19699,-0.1879 -0.32797,-0.31933 -0.62258,-0.65318 -0.90768,-1.012 -0.12556,-0.15596 -0.25262,-0.30824 -0.38376,-0.45938 -0.0363,-0.042 -0.0727,-0.084 -0.11001,-0.12724 -0.0706,-0.0814 -0.14157,-0.16251 -0.21292,-0.24327 -0.37976,-0.44005 -0.44315,-0.78102 -0.43266,-1.35045 0.0426,-0.39663 0.20246,-0.62046 0.49606,-0.89204 0.46679,-0.31508 0.95085,-0.38453 1.50207,-0.22258 z"
       fill="#b02025"
       id="path21"
       style="stroke-width:0.0727729" />
    <path
       d="m 101.17537,101.35953 c 0.31411,0.23185 0.57572,0.49457 0.70045,0.86872 0.007,0.19806 0.0114,0.39429 0.0117,0.59237 7.4e-4,0.0906 7.4e-4,0.0906 9.2e-4,0.18295 9.1e-4,0.19991 0.002,0.39979 0.002,0.59969 7.3e-4,0.13896 8.6e-4,0.27793 9.1e-4,0.41688 8e-4,0.2915 9.1e-4,0.583 0.002,0.8745 7.2e-4,0.37319 0.002,0.74635 0.005,1.11953 0.002,0.28712 0.002,0.57423 0.002,0.86136 0,0.13755 8e-4,0.2751 0.002,0.41266 9.2e-4,0.19265 9.2e-4,0.38526 7.2e-4,0.57792 9.2e-4,0.0849 9.2e-4,0.0849 0.002,0.17154 -0.003,0.41113 -0.0899,0.70852 -0.3637,1.01875 -0.38016,0.31812 -0.67711,0.46934 -1.1834,0.4446 -0.373773,-0.049 -0.682541,-0.16664 -0.955151,-0.43209 -0.26931,-0.39634 -0.333624,-0.67418 -0.328753,-1.14819 -7.31e-4,-0.0619 -9.14e-4,-0.12367 -0.0018,-0.18737 -9.14e-4,-0.20307 -7.31e-4,-0.40606 7.22e-4,-0.60913 0,-0.1418 -7.22e-4,-0.28361 -8.68e-4,-0.42541 -7.31e-4,-0.29663 0,-0.59323 0.0018,-0.88984 0.0018,-0.37972 7.22e-4,-0.75937 -9.13e-4,-1.13908 -9.14e-4,-0.29261 -7.22e-4,-0.58522 3.6e-5,-0.87784 0,-0.13999 -3.6e-5,-0.27999 -7.22e-4,-0.41998 -7.31e-4,-0.19577 7.22e-4,-0.39146 0.0018,-0.58723 -7.31e-4,-0.0575 -9.14e-4,-0.11502 -0.0018,-0.17427 0.0055,-0.37822 0.08398,-0.58989 0.330536,-0.89172 0.528066,-0.47526 1.088093,-0.5752 1.773843,-0.35932 z"
       fill="#ba2026"
       id="path22"
       style="stroke-width:0.0727729" />
    <path
       d="m 51.612497,101.35953 c 0.407232,0.29358 0.645655,0.60003 0.777765,1.08704 0.02358,0.2362 0.02705,0.47173 0.03016,0.70898 0.0018,0.0691 0.0027,0.13812 0.0046,0.20927 0.0046,0.22454 0.0073,0.4491 0.01115,0.67366 0.0027,0.15465 0.0064,0.3093 0.0091,0.46395 0.01289,0.69612 0.0212,1.39173 0.01234,2.08793 -8.5e-4,0.0808 -8.5e-4,0.0808 -0.0018,0.16318 -0.0027,0.2456 -0.0073,0.49083 -0.01416,0.73635 -0.0082,0.5214 0.04167,0.84081 0.312944,1.28792 0,0.0481 0,0.0961 0,0.14555 0.04807,0 0.09606,0 0.145544,0 0.339052,0.31425 0.339052,0.31425 0.436638,0.50941 -0.783714,0.0784 -1.54632,-0.26398 -2.161015,-0.73256 -0.861836,-0.72306 -1.42449,-1.5715 -1.623171,-2.68776 -0.0073,-0.12412 -0.01152,-0.24845 -0.01289,-0.37276 -9.14e-4,-0.0724 -0.0018,-0.14481 -0.0027,-0.21939 -8.04e-4,-0.11622 -8.04e-4,-0.11622 -0.0018,-0.2348 -5.85e-4,-0.0805 -9.14e-4,-0.16096 -0.0018,-0.24388 -9.14e-4,-0.17011 -0.0018,-0.34022 -0.0027,-0.51033 -8.41e-4,-0.17355 -0.0027,-0.3471 -0.0046,-0.52064 -0.0027,-0.25125 -0.0046,-0.50243 -0.0046,-0.75369 -9.13e-4,-0.077 -0.0027,-0.15408 -0.0037,-0.23344 0.0018,-0.52793 0.07109,-0.94652 0.458123,-1.33856 0.04194,-0.0263 0.08389,-0.0527 0.127066,-0.0799 0.06314,-0.0415 0.06314,-0.0415 0.127641,-0.0839 0.416361,-0.22509 0.941978,-0.20296 1.3824,-0.0617 z"
       fill="#ac2024"
       id="path23"
       style="stroke-width:0.0727729" />
    <path
       d="m 52.358132,98.43469 c 0.332958,0.191965 0.57479,0.438129 0.687079,0.809877 0.06378,0.406565 0.05483,0.759783 -0.150094,1.123433 -0.198608,0.26646 -0.396869,0.46376 -0.723174,0.55035 -0.594473,0.0624 -1.04406,0.092 -1.528236,-0.2911 -0.270233,-0.28526 -0.4327,-0.5574 -0.439197,-0.958554 0.03308,-0.480977 0.191088,-0.775307 0.552903,-1.101822 0.436009,-0.301851 1.108055,-0.299923 1.600719,-0.132184 z"
       fill="#941d1f"
       id="path24"
       style="stroke-width:0.0727729" />
    <path
       d="m 56.344446,98.423606 c 0.346436,0.187588 0.579605,0.449944 0.70328,0.820971 0.03564,0.405011 0.05593,0.757333 -0.122807,1.127973 -0.298178,0.32235 -0.52908,0.53149 -0.979307,0.56058 -0.08809,9.2e-4 -0.176175,0.002 -0.266926,0.004 -0.131287,0.003 -0.131287,0.003 -0.265225,0.005 -0.331066,-0.0306 -0.569699,-0.12572 -0.814144,-0.35391 -0.347314,-0.45418 -0.369328,-0.775693 -0.316966,-1.343738 0.116182,-0.356744 0.345559,-0.594235 0.654958,-0.800501 0.427619,-0.142546 0.97483,-0.153484 1.407137,-0.02047 z"
       fill="#941d1f"
       id="path25"
       style="stroke-width:0.0727729" />
    <path
       d="m 101.18874,98.43469 c 0.33198,0.191399 0.57662,0.438238 0.68708,0.809877 0.0572,0.45179 0.054,0.855933 -0.21832,1.237143 -0.36081,0.36179 -0.64543,0.44837 -1.15072,0.45483 -0.13129,0.003 -0.13129,0.003 -0.26523,0.005 -0.331073,-0.0306 -0.569697,-0.12572 -0.814142,-0.35391 -0.349717,-0.45732 -0.35732,-0.773588 -0.316966,-1.343744 0.12618,-0.385547 0.335626,-0.567652 0.654958,-0.800501 0.43839,-0.146137 0.98421,-0.158885 1.42334,-0.0094 z"
       fill="#941d1f"
       id="path26"
       style="stroke-width:0.0727729" />
    <path
       d="m 54.282351,99.753982 c 0.912571,0 1.825143,0 2.765375,0 -0.08243,0.577288 -0.08243,0.577288 -0.272901,0.786848 -0.03564,0.041 -0.07128,0.082 -0.108022,0.12422 -0.304492,0.25532 -0.61019,0.27478 -0.997218,0.27603 -0.129314,0.002 -0.129314,0.002 -0.261241,0.004 -0.387549,-0.0406 -0.617894,-0.1749 -0.89403,-0.44489 -0.159187,-0.23653 -0.159187,-0.23653 -0.231963,-0.745932 z"
       fill="#bd2127"
       id="path27"
       style="stroke-width:0.0727729" />
    <path
       d="m 99.110442,99.753982 c 0.912568,0 1.825148,0 2.765378,0 -0.0824,0.577288 -0.0824,0.577288 -0.2729,0.786848 -0.0356,0.041 -0.0713,0.082 -0.10803,0.12422 -0.30449,0.25532 -0.6102,0.27478 -0.99721,0.27603 -0.12932,0.002 -0.12932,0.002 -0.26125,0.004 -0.387544,-0.0406 -0.617898,-0.1749 -0.894025,-0.44489 -0.159187,-0.23653 -0.159187,-0.23653 -0.231963,-0.745932 z"
       fill="#bd2127"
       id="path28"
       style="stroke-width:0.0727729" />
    <path
       d="m 50.207069,99.753982 c 0.936586,0 1.873182,0 2.838142,0 -0.08316,0.498818 -0.185376,0.722558 -0.568539,1.046108 -0.415292,0.21486 -0.946007,0.18432 -1.396326,0.11826 -0.539031,-0.30594 -0.701489,-0.56311 -0.873277,-1.164368 z"
       fill="#bd2127"
       id="path29"
       style="stroke-width:0.0727729" />
  </g>
</svg>
