<?xml version="1.0" encoding="UTF-8" standalone="no"?>
<!-- Created with Inkscape (http://www.inkscape.org/) -->

<svg
   width="50mm"
   height="50mm"
   viewBox="0 0 50 50"
   version="1.1"
   id="svg1"
   inkscape:version="1.3.2 (091e20ef0f, 2023-11-25)"
   sodipodi:docname="deneyap.svg"
   xmlns:inkscape="http://www.inkscape.org/namespaces/inkscape"
   xmlns:sodipodi="http://sodipodi.sourceforge.net/DTD/sodipodi-0.dtd"
   xmlns="http://www.w3.org/2000/svg"
   xmlns:svg="http://www.w3.org/2000/svg">
  <sodipodi:namedview
     id="namedview1"
     pagecolor="#505050"
     bordercolor="#eeeeee"
     borderopacity="1"
     inkscape:showpageshadow="0"
     inkscape:pageopacity="0"
     inkscape:pagecheckerboard="0"
     inkscape:deskcolor="#505050"
     inkscape:document-units="mm"
     inkscape:zoom="3.0182099"
     inkscape:cx="103.86951"
     inkscape:cy="119.11034"
     inkscape:window-width="1920"
     inkscape:window-height="1051"
     inkscape:window-x="0"
     inkscape:window-y="0"
     inkscape:window-maximized="1"
     inkscape:current-layer="layer1" />
  <defs
     id="defs1">
    <linearGradient
       x1="0"
       y1="0"
       x2="1"
       y2="0"
       gradientUnits="userSpaceOnUse"
       gradientTransform="matrix(44.178983,0,0,44.178983,2.9404855,37.40125)"
       spreadMethod="pad"
       id="linearGradient22">
      <stop
         style="stop-opacity:1;stop-color:#881a1c"
         offset="0"
         id="stop1" />
      <stop
         style="stop-opacity:1;stop-color:#881a1c"
         offset="0.00043424"
         id="stop2" />
      <stop
         style="stop-opacity:1;stop-color:#b42025"
         offset="0.0497237"
         id="stop3" />
      <stop
         style="stop-opacity:1;stop-color:#b42025"
         offset="0.05033687"
         id="stop4" />
      <stop
         style="stop-opacity:1;stop-color:#c72127"
         offset="0.107112"
         id="stop5" />
      <stop
         style="stop-opacity:1;stop-color:#c72127"
         offset="0.10745021"
         id="stop6" />
      <stop
         style="stop-opacity:1;stop-color:#ef4f24"
         offset="0.160545"
         id="stop7" />
      <stop
         style="stop-opacity:1;stop-color:#ef4f24"
         offset="0.216167"
         id="stop8" />
      <stop
         style="stop-opacity:1;stop-color:#f27123"
         offset="0.277742"
         id="stop9" />
      <stop
         style="stop-opacity:1;stop-color:#f58921"
         offset="0.336279"
         id="stop10" />
      <stop
         style="stop-opacity:1;stop-color:#f89d1d"
         offset="0.3919"
         id="stop11" />
      <stop
         style="stop-opacity:1;stop-color:#fbae19"
         offset="0.447522"
         id="stop12" />
      <stop
         style="stop-opacity:1;stop-color:#fcb816"
         offset="0.503143"
         id="stop13" />
      <stop
         style="stop-opacity:1;stop-color:#ffc113"
         offset="0.627983"
         id="stop14" />
      <stop
         style="stop-opacity:1;stop-color:#00c0e8"
         offset="0.656322"
         id="stop15" />
      <stop
         style="stop-opacity:1;stop-color:#1fafda"
         offset="0.728562"
         id="stop16" />
      <stop
         style="stop-opacity:1;stop-color:#0087b5"
         offset="0.778352"
         id="stop17" />
      <stop
         style="stop-opacity:1;stop-color:#0075a2"
         offset="0.831059"
         id="stop18" />
      <stop
         style="stop-opacity:1;stop-color:#00537e"
         offset="0.88668"
         id="stop19" />
      <stop
         style="stop-opacity:1;stop-color:#134169"
         offset="0.943279"
         id="stop20" />
      <stop
         style="stop-opacity:1;stop-color:#172951"
         offset="0.997207"
         id="stop21" />
      <stop
         style="stop-opacity:1;stop-color:#172951"
         offset="1"
         id="stop22" />
    </linearGradient>
    <linearGradient
       x1="0"
       y1="0"
       x2="1"
       y2="0"
       gradientUnits="userSpaceOnUse"
       gradientTransform="matrix(41.84061,0,0,41.84061,3.6564808,22.619229)"
       spreadMethod="pad"
       id="linearGradient44">
      <stop
         style="stop-opacity:1;stop-color:#881a1c"
         offset="0"
         id="stop23" />
      <stop
         style="stop-opacity:1;stop-color:#881a1c"
         offset="0.00034314"
         id="stop24" />
      <stop
         style="stop-opacity:1;stop-color:#b42025"
         offset="0.0392915"
         id="stop25" />
      <stop
         style="stop-opacity:1;stop-color:#b42025"
         offset="0.03968175"
         id="stop26" />
      <stop
         style="stop-opacity:1;stop-color:#c72127"
         offset="0.0758157"
         id="stop27" />
      <stop
         style="stop-opacity:1;stop-color:#c72127"
         offset="0.07609732"
         id="stop28" />
      <stop
         style="stop-opacity:1;stop-color:#ef4f24"
         offset="0.120307"
         id="stop29" />
      <stop
         style="stop-opacity:1;stop-color:#ef4f24"
         offset="0.164006"
         id="stop30" />
      <stop
         style="stop-opacity:1;stop-color:#f27123"
         offset="0.209187"
         id="stop31" />
      <stop
         style="stop-opacity:1;stop-color:#f58921"
         offset="0.255802"
         id="stop32" />
      <stop
         style="stop-opacity:1;stop-color:#f89d1d"
         offset="0.303972"
         id="stop33" />
      <stop
         style="stop-opacity:1;stop-color:#fbae19"
         offset="0.352142"
         id="stop34" />
      <stop
         style="stop-opacity:1;stop-color:#fcb816"
         offset="0.401802"
         id="stop35" />
      <stop
         style="stop-opacity:1;stop-color:#ffc113"
         offset="0.452945"
         id="stop36" />
      <stop
         style="stop-opacity:1;stop-color:#00c0e8"
         offset="0.520798"
         id="stop37" />
      <stop
         style="stop-opacity:1;stop-color:#1fafda"
         offset="0.728562"
         id="stop38" />
      <stop
         style="stop-opacity:1;stop-color:#0087b5"
         offset="0.778352"
         id="stop39" />
      <stop
         style="stop-opacity:1;stop-color:#0075a2"
         offset="0.831059"
         id="stop40" />
      <stop
         style="stop-opacity:1;stop-color:#00537e"
         offset="0.88668"
         id="stop41" />
      <stop
         style="stop-opacity:1;stop-color:#134169"
         offset="0.943279"
         id="stop42" />
      <stop
         style="stop-opacity:1;stop-color:#172951"
         offset="0.997207"
         id="stop43" />
      <stop
         style="stop-opacity:1;stop-color:#172951"
         offset="1"
         id="stop44" />
    </linearGradient>
    <linearGradient
       x1="0"
       y1="0"
       x2="1"
       y2="0"
       gradientUnits="userSpaceOnUse"
       gradientTransform="matrix(3.396754,0,0,3.396754,4.4666122,31.80546)"
       spreadMethod="pad"
       id="linearGradient49">
      <stop
         style="stop-opacity:1;stop-color:#8b1c1b"
         offset="0"
         id="stop45" />
      <stop
         style="stop-opacity:1;stop-color:#8b1c1b"
         offset="0.00510204"
         id="stop46" />
      <stop
         style="stop-opacity:1;stop-color:#b12024"
         offset="0.2321"
         id="stop47" />
      <stop
         style="stop-opacity:1;stop-color:#c12126"
         offset="0.5077"
         id="stop48" />
      <stop
         style="stop-opacity:1;stop-color:#e34325"
         offset="1"
         id="stop49" />
    </linearGradient>
  </defs>
  <g
     inkscape:label="Katman 1"
     inkscape:groupmode="layer"
     id="layer1">
    <path
       id="path22"
       d="m 37.331833,35.950356 -1.309957,3.316406 h 0.718563 l 1.182849,-3.001419 c 0.03864,-0.08841 0.09947,-0.127105 0.187941,-0.127105 v 0 c 0.08847,0 0.149118,0.03872 0.182377,0.127105 v 0 l 1.133144,3.001419 h 0.724065 l -1.260251,-3.316407 c -0.132672,-0.348243 -0.386947,-0.480854 -0.773772,-0.480854 v 0 c -0.39257,0 -0.646845,0.132611 -0.784959,0.480854 m -13.583935,0 -1.310018,3.316407 h 0.718623 l 1.18285,-3.001419 c 0.0387,-0.08841 0.09947,-0.127105 0.18794,-0.127105 v 0 c 0.08841,0 0.14924,0.03872 0.182377,0.127105 v 0 l 1.133143,3.001419 h 0.724126 l -1.260251,-3.316407 c -0.132731,-0.348243 -0.387006,-0.480854 -0.773892,-0.480854 v 0 c -0.392389,0 -0.646785,0.132611 -0.784898,0.480854 m -12.91,0.331618 v 2.984789 h 0.652227 v -2.951654 c 0,-0.132669 0.07734,-0.215511 0.22652,-0.215511 v 0 c 0.116163,0 0.182498,0.04971 0.232265,0.160244 v 0 l 1.088879,2.382331 c 0.154743,0.425646 0.392449,0.690864 0.912006,0.690864 v 0 c 0.574947,0 0.856797,-0.326053 0.856797,-0.818032 v 0 -2.979287 h -0.657791 v 2.951649 c 0,0.127168 -0.08296,0.21001 -0.221078,0.21001 v 0 c -0.121665,0 -0.193503,-0.06627 -0.237706,-0.154681 v 0 l -1.08888,-2.38233 c -0.154803,-0.425646 -0.386946,-0.690864 -0.906503,-0.690864 v 0 c -0.580389,0 -0.856736,0.326053 -0.856736,0.812472 m 33.446087,-0.746256 v 0.652223 h 1.08888 v 3.078822 h 0.657731 V 36.18794 h 1.08888 v -0.652223 z m -3.592148,0 v 0.652223 h 2.045029 c 0.359312,0 0.519738,0.226703 0.519738,0.491983 v 0 c 0,0.265344 -0.14936,0.519617 -0.519738,0.519617 v 0 h -1.453633 c -0.409078,0 -0.586013,0.171311 -0.586013,0.591334 v 0 1.475888 h 0.652287 v -1.348778 c 0,-0.06622 0.0332,-0.09385 0.09403,-0.09385 v 0 h 0.972839 l 0.851233,1.442627 h 0.724126 l -0.867862,-1.492455 c 0.569384,-0.160186 0.790341,-0.657671 0.790341,-1.121959 v 0 c 0,-0.597015 -0.359253,-1.116631 -1.199359,-1.116631 v 0 z m -5.807882,0 -0.569383,1.116631 c -0.210012,0.408958 -0.315108,0.464288 -0.956269,0.464288 v 0 h -0.359191 v -1.580919 h -0.652288 v 3.731045 h 0.652288 v -1.558787 h 0.359191 c 0.702054,0 0.834785,0.05533 1.039173,0.453279 v 0 l 0.569384,1.105508 h 0.729507 l -0.6024,-1.171782 c -0.221138,-0.431153 -0.392388,-0.624595 -0.740755,-0.718565 v 0 c 0.304163,-0.13267 0.480916,-0.348244 0.646724,-0.679924 v 0 l 0.585953,-1.160774 z m -7.776113,0 v 0.652223 h 1.940234 c 0.353688,0 0.513872,0.226703 0.513872,0.497548 v 0 c 0,0.259779 -0.149179,0.514052 -0.519496,0.514052 v 0 h -1.343155 c -0.409078,0 -0.586013,0.171311 -0.586013,0.591334 v 0 1.475888 h 0.652288 v -1.348778 c 0,-0.06622 0.0332,-0.09385 0.09403,-0.09385 v 0 h 1.160777 c 0.873306,0 1.199419,-0.608023 1.199419,-1.171787 v 0 c 0,-0.597015 -0.359311,-1.116631 -1.199419,-1.116631 v 0 z m -5.067369,0 -1.055743,1.597491 -1.044676,-1.597491 h -0.790461 l 1.50346,2.122546 v 1.608499 h 0.657731 v -1.608499 l 1.503581,-2.122546 z m -5.22834,0 c -0.878868,0 -1.249246,0.42014 -1.249246,1.017101 v 0 c 0,0.409016 0.176875,0.696429 0.52512,0.840169 v 0 c -0.342622,0.143735 -0.536186,0.431148 -0.536186,0.856794 v 0 c 0,0.580327 0.359312,1.016981 1.243683,1.016981 v 0 h 1.890407 v -0.652228 h -1.890407 c -0.381383,0 -0.56376,-0.176812 -0.56376,-0.469847 v 0 c 0,-0.303985 0.193443,-0.453164 0.569262,-0.453164 v 0 h 1.851767 V 37.10001 h -1.835137 c -0.37588,0 -0.569263,-0.138176 -0.569263,-0.442156 v 0 c 0,-0.287475 0.171311,-0.469914 0.56376,-0.469914 v 0 h 1.868275 v -0.652223 z m -8.6875152,0 c -0.8789282,0 -1.2493056,0.42014 -1.2493056,1.017101 v 0 c 0,0.409016 0.1768738,0.696429 0.5251191,0.840169 v 0 c -0.3426215,0.143735 -0.5361246,0.431148 -0.5361246,0.856794 v 0 c 0,0.580327 0.3592512,1.016981 1.243621,1.016981 v 0 H 9.9983958 V 38.614534 H 8.1079277 c -0.3813224,0 -0.5637597,-0.176812 -0.5637597,-0.469847 v 0 c 0,-0.303985 0.193564,-0.453164 0.5693231,-0.453164 v 0 H 9.9651978 V 37.10001 H 8.1300599 c -0.3758804,0 -0.5692627,-0.138176 -0.5692627,-0.442156 v 0 c 0,-0.287475 0.171311,-0.469914 0.5638206,-0.469914 v 0 h 1.868275 v -0.652223 z m -4.8746508,0 c -0.2100141,0 -0.309486,0.09953 -0.309486,0.30398 v 0 3.123022 c 0,0.204571 0.099472,0.304043 0.309486,0.304043 v 0 h 1.3155218 c 1.0945012,0 1.6804537,-0.608023 1.6804537,-1.862772 v 0 c 0,-1.260251 -0.5915159,-1.868273 -1.6804537,-1.868273 v 0 z m 0.3428045,3.01248 V 36.25434 c 0,-0.04971 0.022069,-0.0664 0.071834,-0.0664 v 0 h 0.9008832 c 0.7241829,0 1.0281656,0.359314 1.0281656,1.210548 v 0 c 0,0.856674 -0.3039827,1.216046 -1.0281656,1.216046 v 0 H 3.6646056 c -0.049765,0 -0.071834,-0.01661 -0.071834,-0.06634"
       style="fill:url(#linearGradient22);stroke:none;stroke-width:0.0604697" />
    <path
       id="path44"
       d="m 40.538848,11.630673 c 0,0.332403 0.269514,0.601917 0.601917,0.601917 v 0 c 0.262016,0 0.48243,-0.168348 0.565332,-0.401883 v 0 h 3.682006 l -9.45288,10.001584 10.292746,11.575432 h -5.42136 c -0.08278,-0.233717 -0.303436,-0.401881 -0.565271,-0.401881 v 0 c -0.332342,0 -0.601976,0.269511 -0.601976,0.602033 v 0 c 0,0.332343 0.269634,0.601917 0.601976,0.601917 v 0 c 0.261835,0 0.482488,-0.168405 0.565271,-0.401822 v 0 h 6.312867 L 36.478181,21.840515 46.317344,11.430458 h -4.611247 c -0.0829,-0.233474 -0.303316,-0.401762 -0.565332,-0.401762 v 0 c -0.332403,0 -0.601917,0.269514 -0.601917,0.601977 m -13.758329,0 c 0,0.332403 0.269574,0.601917 0.601976,0.601917 v 0 c 0.261895,0 0.482429,-0.168348 0.565212,-0.401883 v 0 h 2.456222 v 8.775256 l 8.041698,-8.339329 c 0.225492,0.102496 0.499783,0.06053 0.681615,-0.127893 v 0 c 0.230631,-0.239401 0.223799,-0.620481 -0.01548,-0.851174 v 0 c -0.23934,-0.230752 -0.62036,-0.223798 -0.851172,0.01548 v 0 c -0.181833,0.188485 -0.213761,0.464106 -0.103041,0.685788 v 0 l -7.35337,7.625424 v -8.183801 h -2.856472 c -0.08278,-0.233474 -0.303317,-0.401762 -0.565212,-0.401762 v 0 c -0.332402,0 -0.601976,0.269515 -0.601976,0.601977 m -2.14565,0.02564 c 0,0.261895 0.168287,0.482429 0.401822,0.565272 v 0 21.696263 h 5.767488 v -6.005497 l 1.680879,-1.769347 3.414367,3.757111 c -0.117009,0.218175 -0.09318,0.494701 0.0829,0.688448 v 0 c 0.223617,0.246112 0.604335,0.264255 0.850326,0.04069 v 0 c 0.245931,-0.223618 0.264193,-0.604334 0.04052,-0.850263 v 0 c -0.176028,-0.19393 -0.449049,-0.243816 -0.677564,-0.148154 v 0 l -3.704138,-4.075783 -2.087539,2.197469 v 5.765132 H 25.437 v -21.29607 c 0.233534,-0.08284 0.401761,-0.303377 0.401761,-0.565272 v 0 c 0,-0.332463 -0.269514,-0.601976 -0.601916,-0.601976 v 0 c -0.332463,0 -0.601977,0.269513 -0.601977,0.601976 M 8.1735981,11.638536 H 2.940481 v 22.362938 h 8.346768 c 1.411607,0 2.765163,-0.206383 4.032671,-0.61274 v 0 c 0.161454,0.201728 0.439857,0.28542 0.692016,0.184131 v 0 c 0.308215,-0.123779 0.457877,-0.474203 0.333854,-0.78248 v 0 C 16.221947,32.48217 15.871525,32.332749 15.563371,32.456591 v 0 c -0.233353,0.09379 -0.375215,0.317651 -0.376848,0.554569 v 0 c -1.224634,0.391361 -2.533382,0.590309 -3.899274,0.590309 v 0 H 3.3404904 V 12.038602 h 4.8331077 c 0.082723,0.233293 0.3031353,0.40152 0.5648484,0.40152 v 0 c 0.3321608,0 0.6014933,-0.269393 0.6014933,-0.601554 v 0 c 0,-0.332221 -0.2693325,-0.601553 -0.6014933,-0.601553 v 0 c -0.2617131,0 -0.4821257,0.168227 -0.5648484,0.401519 m 7.2670189,0.849661 c -0.115013,0.311662 0.04433,0.65761 0.355986,0.772744 v 0 c 0.238553,0.08811 0.496336,0.01439 0.656158,-0.164418 v 0 c 1.092629,0.487387 2.069881,1.129092 2.90642,1.914293 v 0 c 2.063653,1.936968 3.200122,4.661919 3.200122,7.672892 v 0 c 0,2.657467 -0.851293,5.125844 -2.406153,7.020059 v 0 c -0.218901,-0.08641 -0.477772,-0.03926 -0.651986,0.139809 v 0 c -0.231659,0.238189 -0.226519,0.619089 0.01155,0.850688 v 0 c 0.238311,0.2316 0.619029,0.226577 0.850749,-0.01155 v 0 c 0.190661,-0.196106 0.218115,-0.487811 0.0901,-0.714272 v 0 c 1.61914,-1.967204 2.505687,-4.529247 2.505687,-7.284735 v 0 c 0,-3.122601 -1.181277,-5.951075 -3.326383,-7.964599 v 0 c -0.872458,-0.818881 -1.891253,-1.487133 -3.0299,-1.993326 v 0 c 0.01246,-0.255364 -0.137266,-0.500327 -0.389728,-0.593511 v 0 c -0.06869,-0.0254 -0.13908,-0.03743 -0.208257,-0.03743 v 0 c -0.244661,0 -0.474628,0.150449 -0.564365,0.393357 M 4.2886541,13.552825 c 0,0.332221 0.2693947,0.601554 0.6016169,0.601554 v 0 c 0.261713,0 0.4821261,-0.168227 0.5649097,-0.40158 v 0 h 5.8320673 c 4.635797,0 8.198254,2.520079 9.244019,6.470389 v 0 c -0.19828,0.126141 -0.312327,0.362759 -0.2703,0.608871 v 0 c 0.05587,0.327505 0.366749,0.547615 0.694193,0.49168 v 0 c 0.327444,-0.05593 0.547675,-0.366749 0.491801,-0.694254 v 0 c -0.04614,-0.269876 -0.266067,-0.464166 -0.525059,-0.493675 v 0 c -1.086884,-4.140608 -4.801725,-6.783017 -9.634653,-6.783017 v 0 H 5.4551807 C 5.3723967,13.1195 5.151984,12.951273 4.890271,12.951273 v 0 c -0.3322222,0 -0.6016169,0.269333 -0.6016169,0.601554 M 26.752098,13.145865 v 18.94664 h 2.336734 v -1.499169 c 0.233474,-0.08272 0.401762,-0.303255 0.401762,-0.565089 v 0 c 0,-0.332522 -0.269454,-0.601975 -0.601917,-0.601975 v 0 c -0.332463,0 -0.601976,0.269453 -0.601976,0.601975 v 0 c 0,0.261834 0.168287,0.482368 0.401821,0.565089 v 0 1.09898 H 27.152347 V 13.546175 h 1.536175 v 3.80869 c -0.233534,0.08278 -0.401821,0.303377 -0.401821,0.565272 v 0 c 0,0.332402 0.269513,0.601977 0.601976,0.601977 v 0 c 0.332463,0 0.601917,-0.269575 0.601917,-0.601977 v 0 c 0,-0.261895 -0.168288,-0.482489 -0.401762,-0.565272 v 0 -4.209 z m 11.895013,0.216301 c -0.18159,0.188544 -0.213336,0.464226 -0.102617,0.685848 v 0 l -9.455662,9.820355 v -2.473396 c 0.233474,-0.08284 0.401762,-0.303437 0.401762,-0.565271 v 0 c 0,-0.332463 -0.269454,-0.601856 -0.601917,-0.601856 v 0 c -0.332463,0 -0.601976,0.269393 -0.601976,0.601856 v 0 c 0,0.261834 0.168287,0.482428 0.401821,0.565271 v 0 3.466191 L 38.832754,14.325631 c 0.225794,0.102315 0.499965,0.06017 0.681677,-0.128438 v 0 c 0.230389,-0.23946 0.223254,-0.620601 -0.0162,-0.851173 v 0 C 39.381469,13.233607 39.23102,13.177732 39.080813,13.177672 v 0 c -0.157888,0 -0.315533,0.06174 -0.433691,0.184494 m 2.372957,0.0073 c -0.179959,0.190177 -0.209286,0.466101 -0.09663,0.686756 v 0 l -6.69468,7.073515 c -0.22652,-0.10038 -0.500388,-0.05575 -0.680407,0.134364 v 0 c -0.228455,0.241395 -0.217933,0.622415 0.02352,0.850991 v 0 c 0.241336,0.228455 0.622355,0.217933 0.85081,-0.0234 v 0 c 0.180079,-0.190238 0.209468,-0.466101 0.09681,-0.686816 v 0 l 6.694669,-7.073575 c 0.226459,0.100441 0.500326,0.05594 0.680345,-0.134303 v 0 c 0.228516,-0.241395 0.217933,-0.622476 -0.0234,-0.850931 v 0 c -0.116344,-0.110115 -0.265098,-0.16478 -0.413674,-0.16478 v 0 c -0.15958,0 -0.318917,0.06313 -0.437378,0.188182 M 7.9373424,15.210243 c 0,0.332221 0.2693929,0.601554 0.6014928,0.601554 v 0 c 0.2617135,0 0.4821861,-0.168227 0.5649088,-0.40152 v 0 h 2.183504 c 1.53037,0 2.948085,0.358405 4.137223,1.04123 v 0 c -0.05164,0.225431 0.02921,0.470213 0.22652,0.617095 v 0 c 0.266491,0.19834 0.64352,0.14301 0.84174,-0.123601 v 0 c 0.19816,-0.26649 0.142951,-0.643398 -0.12354,-0.841679 v 0 c -0.222408,-0.165566 -0.520645,-0.152142 -0.728903,0.01119 v 0 c -1.253116,-0.724007 -2.745087,-1.104241 -4.35304,-1.104241 v 0 H 9.103744 C 9.0210213,14.776857 8.8005487,14.60869 8.5388352,14.60869 v 0 c -0.3320999,0 -0.6014928,0.269394 -0.6014928,0.601554 m -1.7489072,0.03018 c 0,0.261654 0.1682268,0.482126 0.4015196,0.564849 v 0 3.61549 C 6.356662,19.503543 6.1884352,19.723897 6.1884352,19.98567 v 0 c 0,0.332221 0.2693931,0.601614 0.6015534,0.601614 v 0 c 0.3322213,0 0.6016137,-0.269393 0.6016137,-0.601614 v 0 c 0,-0.261773 -0.1682266,-0.482125 -0.4015794,-0.564908 v 0 -3.61549 c 0.2333528,-0.08273 0.4015794,-0.303199 0.4015794,-0.564853 v 0 c 0,-0.33222 -0.2693924,-0.601552 -0.6016137,-0.601552 v 0 c -0.3321603,0 -0.6015534,0.269332 -0.6015534,0.601552 m -1.9352169,0.114409 c 0,0.261714 0.168168,0.482127 0.4014599,0.564849 v 0 14.105486 H 5.0547459 V 15.919675 c 0.2333545,-0.08272 0.4015807,-0.303135 0.4015807,-0.564848 v 0 c 0,-0.332282 -0.2693902,-0.601614 -0.6015541,-0.601614 v 0 c -0.3322177,0 -0.6015542,0.269332 -0.6015542,0.601614 m 5.8676277,1.483989 H 8.3042729 v 6.778241 c -0.2333527,0.08272 -0.4015798,0.303196 -0.4015798,0.564909 v 0 c 0,0.332222 0.2693324,0.601554 0.6016141,0.601554 v 0 c 0.3321604,0 0.6015533,-0.269332 0.6015533,-0.601554 v 0 c 0,-0.261713 -0.1681662,-0.482186 -0.4016403,-0.564909 v 0 -6.378233 h 1.4166258 c 0.08278,0.233353 0.303136,0.401519 0.564909,0.401519 v 0 c 0.332221,0 0.601493,-0.269332 0.601493,-0.601554 v 0 c 0,-0.33216 -0.269272,-0.601553 -0.601493,-0.601553 v 0 c -0.261773,0 -0.482126,0.168228 -0.564909,0.40158 m 4.048393,0.906503 c -0.153714,0.294487 -0.03973,0.657912 0.25482,0.811686 v 0 c 0.215575,0.112595 0.467371,0.08037 0.647632,-0.05986 v 0 c 1.046309,0.750551 1.71456,1.790571 1.961398,3.052879 v 0 c -0.202937,0.105338 -0.337058,0.321396 -0.3243,0.564606 v 0 c 0.01736,0.331737 0.300535,0.586556 0.632273,0.569081 v 0 c 0.331677,-0.01736 0.586557,-0.300535 0.569021,-0.632273 v 0 C 17.895383,21.771524 17.691,21.548451 17.42838,21.495358 v 0 c -0.266672,-1.367343 -1.008636,-2.522316 -2.142203,-3.334667 v 0 c 0.06126,-0.261109 -0.05666,-0.540298 -0.305252,-0.670187 v 0 c -0.08889,-0.04638 -0.18413,-0.06839 -0.277919,-0.06839 v 0 c -0.216965,0 -0.426493,0.117614 -0.533767,0.323211 m 3.385825,0.399221 c -0.270602,0.192597 -0.334035,0.568174 -0.141499,0.838898 v 0 c 0.141197,0.198462 0.380899,0.284208 0.605545,0.240488 v 0 c 0.547916,1.025931 0.836176,2.209869 0.836176,3.45978 v 0 c 0,2.408754 -0.976466,4.510381 -2.698646,5.857709 v 0 c -0.189573,-0.132791 -0.446932,-0.150267 -0.657488,-0.02252 v 0 c -0.284087,0.172277 -0.374671,0.542294 -0.202332,0.82626 v 0 c 0.172278,0.284024 0.542293,0.37461 0.82638,0.202333 v 0 c 0.23686,-0.143619 0.336454,-0.424501 0.264071,-0.678653 v 0 c 1.830059,-1.422917 2.868083,-3.643064 2.868083,-6.185154 v 0 c 0,-1.322475 -0.307368,-2.576619 -0.89193,-3.664168 v 0 c 0.171433,-0.204751 0.192537,-0.505648 0.03066,-0.733438 v 0 C 18.276712,18.121119 18.091312,18.033135 17.90319,18.033135 v 0 c -0.120637,0 -0.242363,0.03616 -0.348125,0.111386 m 11.537698,8.368294 c -0.225975,-0.101348 -0.500085,-0.05811 -0.68095,0.13116 v 0 c -0.229664,0.240307 -0.220957,0.621385 0.01947,0.850931 v 0 c 0.240367,0.229665 0.621387,0.220954 0.850991,-0.01947 v 0 c 0.180986,-0.189208 0.211523,-0.464892 0.09996,-0.686209 v 0 l 3.130219,-3.276497 7.797338,8.579759 h 2.988961 l -5.383746,-6.054783 c 0.119489,-0.216903 0.09869,-0.493554 -0.07534,-0.689293 v 0 c -0.220962,-0.248415 -0.601377,-0.270793 -0.849727,-0.0499 v 0 c -0.248531,0.220897 -0.270724,0.601434 -0.04995,0.849785 v 0 c 0.173971,0.195801 0.446328,0.248892 0.67581,0.155468 v 0 l 4.791386,5.388525 h -1.920337 l -7.967201,-8.766706 z m -8.824599,-1.945856 c -0.04009,0.24708 0.07674,0.483272 0.277254,0.607419 v 0 c -1.0246,4.097673 -4.594496,6.712753 -9.258169,6.712753 v 0 H 7.3848308 v 0.400006 h 3.9024182 c 4.862922,0 8.585503,-2.739223 9.649711,-7.029976 v 0 c 0.257843,-0.03245 0.475171,-0.228273 0.51871,-0.49791 v 0 c 0.05321,-0.327866 -0.169679,-0.636867 -0.497546,-0.68996 v 0 c -0.03253,-0.0053 -0.06488,-0.0078 -0.09681,-0.0078 v 0 c -0.289892,0 -0.545317,0.210132 -0.593148,0.50547 M 6.1884361,25.43645 c 0,0.261593 0.1682268,0.482126 0.4015196,0.56491 v 0 4.514067 h 3.5308913 c 0.08278,0.233475 0.303135,0.401522 0.564909,0.401522 v 0 c 0.332221,0 0.601493,-0.269211 0.601493,-0.601433 v 0 c 0,-0.332159 -0.269272,-0.601675 -0.601493,-0.601675 v 0 c -0.261774,0 -0.482126,0.168468 -0.564909,0.401581 v 0 H 6.9900238 V 26.00136 c 0.2333528,-0.08278 0.4015794,-0.303317 0.4015794,-0.56491 v 0 c 0,-0.332222 -0.2693924,-0.601491 -0.6016137,-0.601491 v 0 c -0.3321603,0 -0.6015534,0.269269 -0.6015534,0.601491 m 9.8295479,0.117374 c -0.107697,0.212852 -0.07517,0.458297 0.06047,0.636018 v 0 c -1.030768,1.411489 -2.742426,2.211262 -4.79078,2.211262 v 0 l -2.1835651,-0.0036 C 9.0217478,28.163989 8.8016378,27.995642 8.5399248,27.995158 v 0 C 8.207764,27.994711 7.9379476,28.263461 7.9373433,28.595562 v 0 c -5.372e-4,0.33228 0.2683042,0.6021 0.600465,0.602705 v 0 c 0.2617131,3.58e-4 0.4824883,-0.167443 0.565574,-0.400735 v 0 l 2.1838667,0.0036 c 2.188947,0 4.021303,-0.865563 5.126146,-2.392062 v 0 c 0.26516,0.06434 0.549308,-0.05763 0.677988,-0.31142 v 0 c 0.150025,-0.296544 0.03151,-0.658454 -0.264918,-0.808542 v 0 c -0.08708,-0.04414 -0.179898,-0.065 -0.271268,-0.065 v 0 c -0.219626,-6.3e-5 -0.43127,0.120574 -0.537213,0.329742"
       style="fill:url(#linearGradient44);stroke:none;stroke-width:0.0604697" />
    <path
       id="path49"
       d="m 4.4507744,30.317715 -0.2988992,0.51714 0.9017247,-0.0018 v 0.7959 l 0.2586288,0.149425 0.2585683,-0.149425 -0.0017,-0.7959 0.9000328,-0.0018 -0.2988421,-0.517199 z M 6.2861547,32.06741 5.5960126,31.66946 5.337382,31.81888 v 0.298899 L 6.0275253,32.5141 5.579202,33.294884 H 6.1753133 L 7.0333803,31.802066 6.734478,31.286564 Z M 3.5927715,31.80884 4.4558552,33.296581 H 5.051966 L 4.6002576,32.517427 5.2903387,32.11778 5.2885487,31.81888 5.0299781,31.671152 4.3415309,32.070795 3.8898225,31.29164 Z"
       style="fill:url(#linearGradient49);stroke:none;stroke-width:0.0604697" />
  </g>
</svg>
