<?xml version="1.0" encoding="UTF-8" standalone="no"?>
<!-- Created with Inkscape (http://www.inkscape.org/) -->

<svg
   width="100mm"
   height="100mm"
   viewBox="0 0 100 100"
   version="1.1"
   id="svg1"
   inkscape:version="1.3.2 (091e20ef0f, 2023-11-25)"
   sodipodi:docname="deneyap.svg"
   xmlns:inkscape="http://www.inkscape.org/namespaces/inkscape"
   xmlns:sodipodi="http://sodipodi.sourceforge.net/DTD/sodipodi-0.dtd"
   xmlns="http://www.w3.org/2000/svg"
   xmlns:svg="http://www.w3.org/2000/svg">
  <sodipodi:namedview
     id="namedview1"
     pagecolor="#505050"
     bordercolor="#eeeeee"
     borderopacity="1"
     inkscape:showpageshadow="0"
     inkscape:pageopacity="0"
     inkscape:pagecheckerboard="0"
     inkscape:deskcolor="#505050"
     inkscape:document-units="mm"
     inkscape:zoom="2.1341967"
     inkscape:cx="220.45766"
     inkscape:cy="229.82887"
     inkscape:window-width="1920"
     inkscape:window-height="1051"
     inkscape:window-x="1920"
     inkscape:window-y="0"
     inkscape:window-maximized="1"
     inkscape:current-layer="layer1" />
  <defs
     id="defs1">
    <linearGradient
       x1="0"
       y1="0"
       x2="1"
       y2="0"
       gradientUnits="userSpaceOnUse"
       gradientTransform="matrix(98.691293,0,0,98.691293,0.80898273,81.052619)"
       spreadMethod="pad"
       id="linearGradient22">
      <stop
         style="stop-opacity:1;stop-color:#881a1c"
         offset="0"
         id="stop1" />
      <stop
         style="stop-opacity:1;stop-color:#881a1c"
         offset="0.00043424"
         id="stop2" />
      <stop
         style="stop-opacity:1;stop-color:#b42025"
         offset="0.0497237"
         id="stop3" />
      <stop
         style="stop-opacity:1;stop-color:#b42025"
         offset="0.05033687"
         id="stop4" />
      <stop
         style="stop-opacity:1;stop-color:#c72127"
         offset="0.107112"
         id="stop5" />
      <stop
         style="stop-opacity:1;stop-color:#c72127"
         offset="0.10745021"
         id="stop6" />
      <stop
         style="stop-opacity:1;stop-color:#ef4f24"
         offset="0.160545"
         id="stop7" />
      <stop
         style="stop-opacity:1;stop-color:#ef4f24"
         offset="0.216167"
         id="stop8" />
      <stop
         style="stop-opacity:1;stop-color:#f27123"
         offset="0.277742"
         id="stop9" />
      <stop
         style="stop-opacity:1;stop-color:#f58921"
         offset="0.336279"
         id="stop10" />
      <stop
         style="stop-opacity:1;stop-color:#f89d1d"
         offset="0.3919"
         id="stop11" />
      <stop
         style="stop-opacity:1;stop-color:#fbae19"
         offset="0.447522"
         id="stop12" />
      <stop
         style="stop-opacity:1;stop-color:#fcb816"
         offset="0.503143"
         id="stop13" />
      <stop
         style="stop-opacity:1;stop-color:#ffc113"
         offset="0.627983"
         id="stop14" />
      <stop
         style="stop-opacity:1;stop-color:#00c0e8"
         offset="0.656322"
         id="stop15" />
      <stop
         style="stop-opacity:1;stop-color:#1fafda"
         offset="0.728562"
         id="stop16" />
      <stop
         style="stop-opacity:1;stop-color:#0087b5"
         offset="0.778352"
         id="stop17" />
      <stop
         style="stop-opacity:1;stop-color:#0075a2"
         offset="0.831059"
         id="stop18" />
      <stop
         style="stop-opacity:1;stop-color:#00537e"
         offset="0.88668"
         id="stop19" />
      <stop
         style="stop-opacity:1;stop-color:#134169"
         offset="0.943279"
         id="stop20" />
      <stop
         style="stop-opacity:1;stop-color:#172951"
         offset="0.997207"
         id="stop21" />
      <stop
         style="stop-opacity:1;stop-color:#172951"
         offset="1"
         id="stop22" />
    </linearGradient>
    <linearGradient
       x1="0"
       y1="0"
       x2="1"
       y2="0"
       gradientUnits="userSpaceOnUse"
       gradientTransform="matrix(93.467609,0,0,93.467609,2.4084426,48.031107)"
       spreadMethod="pad"
       id="linearGradient44">
      <stop
         style="stop-opacity:1;stop-color:#881a1c"
         offset="0"
         id="stop23" />
      <stop
         style="stop-opacity:1;stop-color:#881a1c"
         offset="0.00034314"
         id="stop24" />
      <stop
         style="stop-opacity:1;stop-color:#b42025"
         offset="0.0392915"
         id="stop25" />
      <stop
         style="stop-opacity:1;stop-color:#b42025"
         offset="0.03968175"
         id="stop26" />
      <stop
         style="stop-opacity:1;stop-color:#c72127"
         offset="0.0758157"
         id="stop27" />
      <stop
         style="stop-opacity:1;stop-color:#c72127"
         offset="0.07609732"
         id="stop28" />
      <stop
         style="stop-opacity:1;stop-color:#ef4f24"
         offset="0.120307"
         id="stop29" />
      <stop
         style="stop-opacity:1;stop-color:#ef4f24"
         offset="0.164006"
         id="stop30" />
      <stop
         style="stop-opacity:1;stop-color:#f27123"
         offset="0.209187"
         id="stop31" />
      <stop
         style="stop-opacity:1;stop-color:#f58921"
         offset="0.255802"
         id="stop32" />
      <stop
         style="stop-opacity:1;stop-color:#f89d1d"
         offset="0.303972"
         id="stop33" />
      <stop
         style="stop-opacity:1;stop-color:#fbae19"
         offset="0.352142"
         id="stop34" />
      <stop
         style="stop-opacity:1;stop-color:#fcb816"
         offset="0.401802"
         id="stop35" />
      <stop
         style="stop-opacity:1;stop-color:#ffc113"
         offset="0.452945"
         id="stop36" />
      <stop
         style="stop-opacity:1;stop-color:#00c0e8"
         offset="0.520798"
         id="stop37" />
      <stop
         style="stop-opacity:1;stop-color:#1fafda"
         offset="0.728562"
         id="stop38" />
      <stop
         style="stop-opacity:1;stop-color:#0087b5"
         offset="0.778352"
         id="stop39" />
      <stop
         style="stop-opacity:1;stop-color:#0075a2"
         offset="0.831059"
         id="stop40" />
      <stop
         style="stop-opacity:1;stop-color:#00537e"
         offset="0.88668"
         id="stop41" />
      <stop
         style="stop-opacity:1;stop-color:#134169"
         offset="0.943279"
         id="stop42" />
      <stop
         style="stop-opacity:1;stop-color:#172951"
         offset="0.997207"
         id="stop43" />
      <stop
         style="stop-opacity:1;stop-color:#172951"
         offset="1"
         id="stop44" />
    </linearGradient>
    <linearGradient
       x1="0"
       y1="0"
       x2="1"
       y2="0"
       gradientUnits="userSpaceOnUse"
       gradientTransform="matrix(7.5879983,0,0,7.5879983,4.2181926,68.5522)"
       spreadMethod="pad"
       id="linearGradient49">
      <stop
         style="stop-opacity:1;stop-color:#8b1c1b"
         offset="0"
         id="stop45" />
      <stop
         style="stop-opacity:1;stop-color:#8b1c1b"
         offset="0.00510204"
         id="stop46" />
      <stop
         style="stop-opacity:1;stop-color:#b12024"
         offset="0.2321"
         id="stop47" />
      <stop
         style="stop-opacity:1;stop-color:#c12126"
         offset="0.5077"
         id="stop48" />
      <stop
         style="stop-opacity:1;stop-color:#e34325"
         offset="1"
         id="stop49" />
    </linearGradient>
  </defs>
  <g
     inkscape:label="Katman 1"
     inkscape:groupmode="layer"
     id="layer1">
    <path
       id="path22"
       d="m 77.635707,77.81147 -2.926309,7.408509 h 1.605195 l 2.642364,-6.70486 c 0.08632,-0.19749 0.222212,-0.28394 0.419839,-0.28394 v 0 c 0.197627,0 0.333116,0.0865 0.407413,0.28394 v 0 l 2.531325,6.70486 h 1.617487 l -2.815271,-7.40851 c -0.296375,-0.77794 -0.8644,-1.07418 -1.728526,-1.07418 v 0 c -0.876961,0 -1.444986,0.29624 -1.753517,1.07418 m -30.345111,0 -2.926445,7.40851 h 1.60533 l 2.642364,-6.70486 c 0.08645,-0.19749 0.222213,-0.28394 0.419839,-0.28394 v 0 c 0.197492,0 0.333386,0.0865 0.407411,0.28394 v 0 l 2.531326,6.70486 h 1.617623 l -2.815271,-7.40851 c -0.296508,-0.77794 -0.864533,-1.07418 -1.728796,-1.07418 v 0 c -0.876556,0 -1.444851,0.29624 -1.753381,1.07418 m -28.839609,0.7408 v 6.66771 h 1.457009 v -6.59369 c 0,-0.29637 0.172771,-0.48143 0.506021,-0.48143 v 0 c 0.259496,0 0.407682,0.11104 0.518856,0.35797 v 0 l 2.432444,5.32188 c 0.345679,0.95085 0.876691,1.54332 2.037327,1.54332 v 0 c 1.284372,0 1.913995,-0.72837 1.913995,-1.8274 v 0 -6.65542 h -1.469436 v 6.59368 c 0,0.28408 -0.185334,0.46914 -0.493865,0.46914 v 0 c -0.271787,0 -0.432266,-0.14805 -0.531012,-0.34554 v 0 l -2.432445,-5.32188 c -0.345813,-0.95085 -0.864398,-1.54332 -2.025034,-1.54332 v 0 c -1.296529,0 -1.91386,0.72837 -1.91386,1.81498 m 74.715111,-1.66706 v 1.457 h 2.432445 v 6.87777 h 1.469304 v -6.87777 h 2.432445 v -1.457 z m -8.024488,0 v 1.457 h 4.568382 c 0.802666,0 1.161043,0.50643 1.161043,1.09904 v 0 c 0,0.59275 -0.333656,1.16077 -1.161043,1.16077 v 0 h -3.247266 c -0.913838,0 -1.309093,0.38269 -1.309093,1.32098 v 0 3.29698 h 1.457143 v -3.01303 c 0,-0.14792 0.07416,-0.20965 0.210054,-0.20965 v 0 h 2.173221 l 1.901567,3.22268 h 1.617624 l -1.938716,-3.33399 c 1.271946,-0.35784 1.76554,-1.46917 1.76554,-2.50634 v 0 c 0,-1.33367 -0.802533,-2.49444 -2.679244,-2.49444 v 0 z m -12.97421,0 -1.271944,2.49444 c -0.469144,0.91357 -0.703919,1.03717 -2.136207,1.03717 v 0 h -0.802395 v -3.53161 h -1.457143 v 8.33477 h 1.457143 v -3.48217 h 0.802395 c 1.568317,0 1.864825,0.1236 2.321406,1.01258 v 0 l 1.271945,2.46959 h 1.629645 l -1.3457,-2.61764 c -0.494,-0.96315 -0.876556,-1.39528 -1.654771,-1.6052 v 0 c 0.679469,-0.29637 1.074318,-0.77794 1.444716,-1.51888 v 0 l 1.308958,-2.59305 z m -17.371036,0 v 1.457 h 4.334283 c 0.790102,0 1.147937,0.50643 1.147937,1.11147 v 0 c 0,0.58032 -0.33325,1.14834 -1.1605,1.14834 v 0 h -3.00047 c -0.913839,0 -1.309093,0.38269 -1.309093,1.32098 v 0 3.29698 h 1.457144 v -3.01303 c 0,-0.14792 0.07416,-0.20965 0.210055,-0.20965 v 0 h 2.593058 c 1.950874,0 2.679378,-1.35826 2.679378,-2.61765 v 0 c 0,-1.33367 -0.802665,-2.49444 -2.679378,-2.49444 v 0 z m -11.31998,0 -2.35842,3.56863 -2.333699,-3.56863 h -1.765808 l 3.358575,4.74155 v 3.59322 h 1.469302 v -3.59322 l 3.358846,-4.74155 z m -11.679573,0 c -1.9633,0 -2.790685,0.93855 -2.790685,2.2721 v 0 c 0,0.9137 0.395119,1.55575 1.173063,1.87685 v 0 c -0.765382,0.32109 -1.197784,0.96314 -1.197784,1.91399 v 0 c 0,1.29639 0.802666,2.27183 2.778259,2.27183 v 0 h 4.222974 v -1.45701 h -4.222974 c -0.851971,0 -1.259382,-0.39498 -1.259382,-1.04959 v 0 c 0,-0.67907 0.432132,-1.01232 1.271674,-1.01232 v 0 h 4.136656 v -1.32138 h -4.099508 c -0.839677,0 -1.271674,-0.30867 -1.271674,-0.98773 v 0 c 0,-0.64219 0.382691,-1.04974 1.259381,-1.04974 v 0 h 4.173534 v -1.457 z m -19.407011,0 c -1.963435,0 -2.79082,0.93855 -2.79082,2.2721 v 0 c 0,0.9137 0.395118,1.55575 1.173062,1.87685 v 0 c -0.765381,0.32109 -1.197647,0.96314 -1.197647,1.91399 v 0 c 0,1.29639 0.80253,2.27183 2.778121,2.27183 v 0 h 4.22311 v -1.45701 h -4.22311 c -0.851835,0 -1.259381,-0.39498 -1.259381,-1.04959 v 0 c 0,-0.67907 0.432402,-1.01232 1.271809,-1.01232 v 0 h 4.136521 v -1.32138 h -4.099508 c -0.839678,0 -1.271674,-0.30867 -1.271674,-0.98773 v 0 c 0,-0.64219 0.382691,-1.04974 1.259517,-1.04974 v 0 h 4.173533 v -1.457 z m -10.8894674,0 c -0.46915,0 -0.69135997,0.22234 -0.69135997,0.67906 v 0 6.97651 c 0,0.45699 0.22220997,0.6792 0.69135997,0.6792 v 0 h 2.93874 c 2.445003,0 3.7539604,-1.35826 3.7539604,-4.16124 v 0 c 0,-2.81527 -1.3213854,-4.17353 -3.7539604,-4.17353 v 0 z m 0.76579,6.72957 v -5.12424 c 0,-0.11104 0.0493,-0.14833 0.16047,-0.14833 v 0 h 2.01248 c 1.61775,0 2.296816,0.80267 2.296816,2.70424 v 0 c 0,1.91372 -0.679066,2.71652 -2.296816,2.71652 v 0 h -2.01248 c -0.11117,0 -0.16047,-0.0371 -0.16047,-0.14819"
       style="fill:url(#linearGradient22);stroke:none;stroke-width:0.135083" />
    <path
       id="path44"
       d="m 84.799848,23.483806 c 0,0.742553 0.602066,1.344619 1.34462,1.344619 v 0 c 0.585317,0 1.077698,-0.376072 1.262894,-0.897763 v 0 h 8.225222 L 74.515824,46.273169 97.508757,72.13149 h -12.11076 c -0.184928,-0.5221 -0.677844,-0.897761 -1.262756,-0.897761 v 0 c -0.742419,0 -1.344753,0.60206 -1.344753,1.344881 v 0 c 0,0.742419 0.602334,1.34462 1.344753,1.34462 v 0 c 0.584912,0 1.077828,-0.3762 1.262756,-0.89763 v 0 H 99.500292 L 75.728736,46.29154 97.708411,23.036545 H 87.407362 c -0.185196,-0.521557 -0.677577,-0.897494 -1.262894,-0.897494 v 0 c -0.742554,0 -1.34462,0.602067 -1.34462,1.344755 m -30.73469,0 c 0,0.742553 0.602202,1.344619 1.344754,1.344619 v 0 c 0.585046,0 1.077695,-0.376072 1.262624,-0.897764 v 0 h 5.486948 V 43.533679 L 80.123807,24.904477 c 0.503726,0.228966 1.116464,0.135218 1.522658,-0.285701 v 0 c 0.515206,-0.534795 0.499944,-1.38609 -0.03458,-1.901433 v 0 c -0.534661,-0.515478 -1.38582,-0.499943 -1.901432,0.03458 v 0 c -0.406196,0.421055 -0.47752,1.036764 -0.230182,1.53198 v 0 l -16.42667,17.03441 V 23.036545 h -6.381065 c -0.184929,-0.521557 -0.677578,-0.897494 -1.262624,-0.897494 v 0 c -0.742552,0 -1.344754,0.602068 -1.344754,1.344755 m -4.793161,0.05728 c 0,0.585046 0.375937,1.077695 0.897629,1.262759 v 0 48.467214 h 12.883975 v -13.41566 l 3.75491,-3.95254 7.627343,8.393 c -0.261386,0.48738 -0.208163,1.10511 0.1852,1.53792 v 0 c 0.499538,0.54979 1.350022,0.59032 1.899541,0.0909 v 0 c 0.549384,-0.49954 0.590179,-1.35002 0.09051,-1.8994 v 0 c -0.393228,-0.43322 -1.003129,-0.54466 -1.513609,-0.33096 v 0 l -8.274662,-9.10488 -4.663346,4.90892 v 12.87871 H 51.063877 V 24.80384 c 0.521692,-0.185064 0.897494,-0.677713 0.897494,-1.262759 v 0 c 0,-0.742688 -0.602067,-1.344754 -1.344619,-1.344754 v 0 c -0.742688,0 -1.344755,0.602066 -1.344755,1.344754 m -36.77278,-0.03971 H 0.80897273 V 73.45787 H 19.454791 c 3.153385,0 6.177089,-0.46104 9.00857,-1.3688 v 0 c 0.360672,0.45064 0.982596,0.6376 1.545893,0.41133 v 0 c 0.68852,-0.27651 1.022851,-1.05932 0.745795,-1.74798 v 0 C 30.478398,70.0639 29.695591,69.73011 29.007206,70.00676 v 0 c -0.521286,0.20952 -0.838191,0.7096 -0.841839,1.23885 v 0 c -2.735706,0.87426 -5.659314,1.31869 -8.710576,1.31869 v 0 H 1.7025526 V 24.395078 H 12.499217 c 0.184794,0.521151 0.677173,0.896953 1.261813,0.896953 v 0 c 0.742013,0 1.343674,-0.601796 1.343674,-1.343809 v 0 c 0,-0.742147 -0.601661,-1.343808 -1.343674,-1.343808 v 0 c -0.58464,0 -1.077019,0.375801 -1.261813,0.896953 m 16.23377,1.898055 c -0.256928,0.696219 0.09902,1.469032 0.795236,1.726229 v 0 c 0.532903,0.196818 1.108764,0.03215 1.465789,-0.367291 v 0 c 2.44082,1.088771 4.623901,2.522275 6.492643,4.276332 v 0 c 4.609988,4.326988 7.148743,10.414247 7.148743,17.14045 v 0 c 0,5.936507 -1.901702,11.450607 -5.375099,15.682087 v 0 c -0.489002,-0.19303 -1.067293,-0.0877 -1.456468,0.31232 v 0 c -0.517504,0.53209 -0.506022,1.38298 0.0258,1.90035 v 0 c 0.532363,0.51737 1.382848,0.50615 1.900487,-0.0258 v 0 c 0.425917,-0.438081 0.487245,-1.08972 0.201274,-1.595611 v 0 c 3.61699,-4.39453 5.597446,-10.11787 5.597446,-16.273347 v 0 c 0,-6.975567 -2.638852,-13.294088 -7.430797,-17.792092 v 0 c -1.948982,-1.829297 -4.224865,-3.322103 -6.768484,-4.452886 v 0 c 0.02783,-0.570456 -0.306638,-1.117679 -0.870612,-1.325842 v 0 c -0.153454,-0.05674 -0.310691,-0.08362 -0.465226,-0.08362 v 0 c -0.546547,0 -1.060269,0.336087 -1.260733,0.878717 M 3.8206526,27.777696 c 0,0.742147 0.6018,1.343809 1.34395,1.343809 v 0 c 0.58464,0 1.07702,-0.375803 1.26195,-0.897089 v 0 H 19.45479 c 10.355891,0 18.314053,5.629596 20.650184,14.454183 v 0 c -0.442938,0.281785 -0.697706,0.810365 -0.603823,1.360155 v 0 c 0.124817,0.731611 0.819281,1.223314 1.550757,1.098362 v 0 c 0.731476,-0.124952 1.223449,-0.81928 1.098632,-1.550891 v 0 c -0.103068,-0.602877 -0.594366,-1.036901 -1.172928,-1.10282 v 0 C 38.549626,33.233713 30.251054,27.330844 19.454791,27.330844 v 0 H 6.4265526 c -0.18493,-0.521152 -0.67731,-0.896954 -1.26195,-0.896954 v 0 c -0.74215,0 -1.34395,0.601661 -1.34395,1.343809 m 50.1810164,-0.90911 v 42.32484 h 5.220024 v -3.34899 c 0.521556,-0.18479 0.897493,-0.67744 0.897493,-1.26235 v 0 c 0,-0.74282 -0.601931,-1.344749 -1.344619,-1.344749 v 0 c -0.742688,0 -1.344754,0.60193 -1.344754,1.344749 v 0 c 0,0.58491 0.375936,1.07756 0.897628,1.26235 v 0 2.45501 h -3.431656 v -40.53661 h 3.431656 v 8.508222 c -0.521692,0.184929 -0.897628,0.677713 -0.897628,1.262759 v 0 c 0,0.742552 0.602066,1.344754 1.344754,1.344754 v 0 c 0.742688,0 1.344619,-0.602202 1.344619,-1.344754 v 0 c 0,-0.585046 -0.375937,-1.07783 -0.897493,-1.262759 v 0 -9.402473 z m 26.572233,0.483193 c -0.405654,0.421189 -0.47657,1.037033 -0.229235,1.532115 v 0 L 59.221693,50.821558 v -5.525312 c 0.521556,-0.185064 0.897493,-0.677848 0.897493,-1.262758 v 0 c 0,-0.742688 -0.601931,-1.344484 -1.344619,-1.344484 v 0 c -0.742688,0 -1.344754,0.601796 -1.344754,1.344484 v 0 c 0,0.58491 0.375936,1.077694 0.897628,1.262758 v 0 7.743113 L 80.988609,29.504064 c 0.5044,0.228561 1.11687,0.134407 1.522796,-0.286917 v 0 c 0.514666,-0.534929 0.498726,-1.38636 -0.03618,-1.901432 v 0 c -0.260844,-0.25112 -0.596931,-0.375938 -0.932478,-0.376073 v 0 c -0.352705,0 -0.704867,0.137921 -0.968821,0.41214 m 5.300941,0.01621 c -0.402009,0.424836 -0.467522,1.041222 -0.215863,1.534141 v 0 L 70.703778,44.703638 c -0.506022,-0.224239 -1.117814,-0.124547 -1.519957,0.300154 v 0 c -0.510345,0.539252 -0.48684,1.390412 0.05255,1.901027 v 0 c 0.539118,0.510345 1.390277,0.48684 1.900622,-0.05228 v 0 c 0.402278,-0.424972 0.467929,-1.041222 0.216269,-1.534276 v 0 l 14.9552,-15.801637 c 0.505886,0.224373 1.117678,0.124952 1.519821,-0.30002 v 0 c 0.510481,-0.539252 0.48684,-1.390548 -0.05228,-1.900891 v 0 c -0.259899,-0.245987 -0.592202,-0.368103 -0.924104,-0.368103 v 0 c -0.356485,0 -0.712429,0.141028 -0.977057,0.420379 m -73.903396,4.112206 c 0,0.742147 0.601796,1.343809 1.343673,1.343809 v 0 c 0.584641,0 1.077154,-0.375802 1.261948,-0.896954 v 0 h 4.877723 c 3.418688,0 6.585716,0.800639 9.242129,2.326 v 0 c -0.115361,0.50359 0.06525,1.050407 0.506022,1.378526 v 0 c 0.595312,0.443072 1.437557,0.319471 1.88036,-0.276111 v 0 c 0.442668,-0.595312 0.319337,-1.437286 -0.275976,-1.880224 v 0 c -0.496836,-0.369858 -1.163067,-0.33987 -1.628294,0.02499 v 0 C 26.3797,31.882882 23.04679,31.033478 19.45479,31.033478 v 0 H 14.577067 C 14.392273,30.512057 13.89976,30.136389 13.315119,30.136389 v 0 c -0.741877,0 -1.343673,0.601797 -1.343673,1.34381 m -3.9068784,0.06741 c 0,0.584507 0.3758014,1.077019 0.8969534,1.261814 v 0 8.076631 c -0.521152,0.184926 -0.8969534,0.67717 -0.8969534,1.261945 v 0 c 0,0.742148 0.6017964,1.343944 1.3438084,1.343944 v 0 c 0.742148,0 1.343943,-0.601796 1.343943,-1.343944 v 0 c 0,-0.584775 -0.375801,-1.077019 -0.897087,-1.261947 v 0 -8.076631 c 0.521286,-0.184794 0.897087,-0.677307 0.897087,-1.261814 v 0 c 0,-0.742146 -0.601795,-1.343807 -1.343943,-1.343807 v 0 c -0.742012,0 -1.3438084,0.601661 -1.3438084,1.343807 m -4.323075,0.255578 c 0,0.584641 0.37567,1.07702 0.89682,1.261814 v 0 31.5102 h 0.89371 V 33.064994 c 0.52129,-0.184793 0.89709,-0.677172 0.89709,-1.261813 v 0 c 0,-0.742283 -0.60179,-1.343943 -1.34381,-1.343943 v 0 c -0.74214,0 -1.34381,0.60166 -1.34381,1.343943 M 16.849168,35.11826 h -4.058037 v 15.141892 c -0.521286,0.184794 -0.897088,0.677309 -0.897088,1.261948 v 0 c 0,0.742149 0.601661,1.343809 1.343944,1.343809 v 0 c 0.742012,0 1.343808,-0.60166 1.343808,-1.343809 v 0 c 0,-0.58464 -0.375666,-1.077154 -0.897223,-1.261948 v 0 -14.248316 h 3.164596 c 0.184929,0.521287 0.677173,0.896953 1.261948,0.896953 v 0 c 0.742148,0 1.343674,-0.601661 1.343674,-1.343809 v 0 c 0,-0.742011 -0.601526,-1.343808 -1.343674,-1.343808 v 0 c -0.584775,0 -1.077019,0.375803 -1.261948,0.897088 m 9.043692,2.025034 c -0.343382,0.657855 -0.08875,1.469707 0.569241,1.813223 v 0 c 0.481572,0.251525 1.044059,0.179527 1.446742,-0.133733 v 0 c 2.337347,1.676654 3.830152,3.999952 4.381562,6.819817 v 0 c -0.45334,0.235315 -0.752954,0.717967 -0.724452,1.261272 v 0 c 0.03877,0.741067 0.671364,1.310307 1.412431,1.27127 v 0 c 0.740932,-0.03877 1.310308,-0.671366 1.271134,-1.412433 v 0 c -0.03283,-0.6253 -0.489407,-1.123621 -1.076073,-1.242226 v 0 c -0.595718,-3.054503 -2.25319,-5.634594 -4.785461,-7.449303 v 0 c 0.136839,-0.58329 -0.126573,-1.206969 -0.681901,-1.497128 v 0 C 27.507511,36.470444 27.294754,36.421274 27.08524,36.421274 v 0 c -0.484679,0 -0.952742,0.262737 -1.19238,0.72202 m 7.563584,0.89182 c -0.604498,0.43024 -0.7462,1.269242 -0.316095,1.87401 v 0 c 0.31542,0.443344 0.85089,0.634892 1.352724,0.537226 v 0 c 1.22399,2.291824 1.867932,4.936619 1.867932,7.728792 v 0 c 0,5.380907 -2.181325,10.075727 -6.028498,13.085517 v 0 c -0.423486,-0.29664 -0.9984,-0.33568 -1.46876,-0.0503 v 0 c -0.634621,0.38485 -0.836976,1.21143 -0.451989,1.84578 v 0 c 0.384852,0.63448 1.211427,0.83684 1.846048,0.45199 v 0 c 0.529122,-0.32083 0.751604,-0.94829 0.589909,-1.51604 v 0 c 4.088161,-3.178649 6.407001,-8.13823 6.407001,-13.816997 v 0 c 0,-2.954272 -0.686628,-5.7559 -1.992479,-8.185373 v 0 c 0.382962,-0.457392 0.430106,-1.129566 0.06849,-1.638425 v 0 C 35.06853,37.982786 34.654365,37.78624 34.234121,37.78624 v 0 c -0.269492,0 -0.541414,0.08078 -0.777675,0.248824 m 25.774028,18.693905 c -0.504806,-0.2264 -1.117139,-0.12981 -1.521173,0.293 v 0 c -0.513046,0.53682 -0.493594,1.38811 0.0435,1.90089 v 0 c 0.536956,0.51305 1.388116,0.49359 1.901027,-0.0435 v 0 c 0.404305,-0.42267 0.472521,-1.03852 0.223293,-1.53292 v 0 l 6.992587,-7.319356 17.41845,19.166296 h 6.677031 L 78.938455,55.667619 c 0.266925,-0.48454 0.220456,-1.10255 -0.168314,-1.53981 v 0 c -0.493594,-0.55492 -1.343403,-0.60491 -1.898191,-0.11145 v 0 c -0.555192,0.49346 -0.604768,1.34354 -0.111578,1.89833 v 0 c 0.388634,0.4374 0.99705,0.556 1.50969,0.3473 v 0 l 10.703461,12.03741 H 84.683684 L 66.885779,48.715475 Z m -19.713246,-4.34684 c -0.08956,0.55195 0.171421,1.07958 0.619357,1.35691 v 0 c -2.288851,9.15378 -10.263629,14.9956 -20.681793,14.9956 v 0 h -8.7176 v 0.89357 h 8.7176 c 10.863264,0 19.179127,-6.11914 21.556458,-15.70424 v 0 c 0.575995,-0.0725 1.061484,-0.50994 1.158744,-1.11228 v 0 c 0.118873,-0.73242 -0.379044,-1.422696 -1.111465,-1.541299 v 0 c -0.07268,-0.01175 -0.144945,-0.01743 -0.216269,-0.01743 v 0 c -0.647589,0 -1.218181,0.469414 -1.325032,1.129169 m -31.4526584,1.94236 c 0,0.58437 0.3758014,1.07702 0.8969534,1.26195 v 0 10.08396 h 7.887647 c 0.184929,0.52156 0.677173,0.89696 1.261948,0.89696 v 0 c 0.742148,0 1.343674,-0.60139 1.343674,-1.34354 v 0 c 0,-0.74201 -0.601526,-1.34408 -1.343674,-1.34408 v 0 c -0.584775,0 -1.077019,0.37634 -1.261948,0.89709 v 0 H 9.855234 v -9.19039 c 0.521286,-0.18493 0.897087,-0.67758 0.897087,-1.26195 v 0 c 0,-0.74215 -0.601795,-1.34367 -1.343943,-1.34367 v 0 c -0.742012,0 -1.3438084,0.60152 -1.3438084,1.34367 m 21.9581944,0.2622 c -0.240584,0.47549 -0.167909,1.02379 0.135083,1.4208 v 0 c -2.30263,3.15312 -6.126298,4.93973 -10.702109,4.93973 v 0 l -4.877858,-0.008 c -0.183984,-0.52169 -0.675687,-0.89776 -1.260327,-0.89884 v 0 c -0.742013,-0.001 -1.344755,0.59936 -1.346105,1.34124 v 0 c -0.0012,0.74228 0.599364,1.34503 1.341377,1.34638 v 0 c 0.58464,8e-4 1.077829,-0.37405 1.263434,-0.8952 v 0 l 4.878533,0.008 c 4.88988,0 8.983174,-1.93358 11.451281,-5.34362 v 0 c 0.59234,0.14373 1.227097,-0.12874 1.514554,-0.69568 v 0 c 0.335142,-0.66245 0.07038,-1.47092 -0.5918,-1.8062 v 0 c -0.194519,-0.0986 -0.401872,-0.14521 -0.605983,-0.14521 v 0 c -0.490623,-1.4e-4 -0.963414,0.26935 -1.20008,0.73661"
       style="fill:url(#linearGradient44);stroke:none;stroke-width:0.135083" />
    <path
       id="path49"
       d="m 4.1828126,65.22873 -0.66771,1.155239 2.01436,-0.004 v 1.777959 l 0.57775,0.3338 0.577615,-0.3338 -0.0038,-1.777959 2.0105804,-0.004 L 8.0240256,65.2206 Z m 4.1000504,3.90864 -1.5417064,-0.88898 -0.577754,0.333789 v 0.66771 l 1.541709,0.88534 -1.001508,1.74419 h 1.331651 L 9.952088,68.544619 9.284371,67.39304 Z m -6.0167404,-0.57762 1.92804,3.32346 h 1.33165 l -1.00907,-1.74055 1.54157,-0.89277 -0.004,-0.66771 -0.57762,-0.33001 -1.53792,0.89276 -1.00907,-1.74055 z"
       style="fill:url(#linearGradient49);stroke:none;stroke-width:0.135083" />
  </g>
</svg>
